<?xml version="1.0" encoding="UTF-8"?><svg id="a" xmlns="http://www.w3.org/2000/svg" width="928.94" height="795.01" viewBox="0 0 928.94 795.01"><path d="m674.47,0H254.48C114.16,0,0,114.15,0,254.48v540.53l226.94-169.62c7.95-5.94,17.61-9.15,27.53-9.15h419.99c140.32,0,254.48-114.16,254.48-254.48v-107.27C928.94,114.17,814.78.01,674.46.01h.01Zm85.85,361.75c0,47.34-38.51,85.85-85.85,85.85H254.48c-47.34,0-85.85-38.51-85.85-85.85v-107.27c0-47.34,38.51-85.85,85.85-85.85h419.99c47.34,0,85.85,38.51,85.85,85.85v107.27h0Z" style="fill:#e5e7eb;"/><path d="m674.47,76.65H254.48c-98.06,0-177.83,79.77-177.83,177.83v107.27c0,98.06,79.77,177.83,177.83,177.83h419.99c98.06,0,177.83-79.77,177.83-177.83v-107.27c0-98.06-79.77-177.83-177.83-177.83h0Zm85.85,285.1c0,47.34-38.51,85.85-85.85,85.85H254.48c-47.34,0-85.85-38.51-85.85-85.85v-107.27c0-47.34,38.51-85.85,85.85-85.85h419.99c47.34,0,85.85,38.51,85.85,85.85v107.27Z" style="fill:#e5e7eb;"/><circle cx="307.84" cy="308.12" r="56.72" style="fill:#e5e7eb;"/><circle cx="621.11" cy="308.12" r="56.72" style="fill:#e5e7eb;"/></svg>