<?xml version="1.0" encoding="UTF-8"?>
<svg xmlns="http://www.w3.org/2000/svg" xmlns:xlink="http://www.w3.org/1999/xlink" width="104px" height="100px" viewBox="0 0 103 100" version="1.1">
<g id="surface1">
<path style=" stroke:none;fill-rule:nonzero;fill:rgb(84.705882%,85.882353%,87.45098%);fill-opacity:1;" d="M 98.351562 43.070312 L 99.007812 43.070312 L 99.007812 45.902344 L 98.351562 45.902344 Z M 98.351562 43.070312 "/>
<path style=" stroke:none;fill-rule:nonzero;fill:rgb(84.705882%,85.882353%,87.45098%);fill-opacity:1;" d="M 100.28125 46.933594 L 103.042969 46.933594 L 103.042969 47.59375 L 100.28125 47.59375 Z M 100.28125 46.933594 "/>
<path style=" stroke:none;fill-rule:nonzero;fill:rgb(84.705882%,85.882353%,87.45098%);fill-opacity:1;" d="M 98.351562 48.992188 L 99.007812 48.992188 L 99.007812 51.667969 L 98.351562 51.667969 Z M 98.351562 48.992188 "/>
<path style=" stroke:none;fill-rule:nonzero;fill:rgb(84.705882%,85.882353%,87.45098%);fill-opacity:1;" d="M 94.242188 46.933594 L 97.160156 46.933594 L 97.160156 47.59375 L 94.242188 47.59375 Z M 94.242188 46.933594 "/>
<path style=" stroke:none;fill-rule:nonzero;fill:rgb(84.705882%,85.882353%,87.45098%);fill-opacity:1;" d="M 3.953125 45.945312 L 4.609375 45.945312 L 4.609375 48.464844 L 3.953125 48.464844 Z M 3.953125 45.945312 "/>
<path style=" stroke:none;fill-rule:nonzero;fill:rgb(84.705882%,85.882353%,87.45098%);fill-opacity:1;" d="M 5.703125 49.347656 L 8.164062 49.347656 L 8.164062 50.007812 L 5.703125 50.007812 Z M 5.703125 49.347656 "/>
<path style=" stroke:none;fill-rule:nonzero;fill:rgb(84.705882%,85.882353%,87.45098%);fill-opacity:1;" d="M 3.953125 51.21875 L 4.609375 51.21875 L 4.609375 53.601562 L 3.953125 53.601562 Z M 3.953125 51.21875 "/>
<path style=" stroke:none;fill-rule:nonzero;fill:rgb(84.705882%,85.882353%,87.45098%);fill-opacity:1;" d="M 0.328125 49.347656 L 2.925781 49.347656 L 2.925781 50.007812 L 0.328125 50.007812 Z M 0.328125 49.347656 "/>
<path style=" stroke:none;fill-rule:nonzero;fill:rgb(75.294118%,77.254902%,79.215686%);fill-opacity:1;" d="M 22.089844 28.382812 C 20.15625 28.382812 19.261719 26.914062 19.261719 24.671875 C 19.261719 22.425781 20.191406 20.9375 22.113281 20.9375 C 24.160156 20.9375 24.941406 22.417969 24.941406 24.648438 C 24.941406 26.878906 24.085938 28.382812 22.089844 28.382812 Z M 22.089844 21.828125 C 20.722656 21.828125 20.328125 23.234375 20.328125 24.648438 C 20.328125 26.066406 20.703125 27.503906 22.109375 27.503906 C 23.519531 27.503906 23.882812 26.054688 23.882812 24.671875 C 23.882812 23.289062 23.476562 21.828125 22.089844 21.828125 Z M 22.089844 21.828125 "/>
<path style=" stroke:none;fill-rule:nonzero;fill:rgb(75.294118%,77.254902%,79.215686%);fill-opacity:1;" d="M 30.328125 28.265625 L 26.730469 28.265625 C 26.570312 28.265625 26.558594 28.210938 26.558594 28.074219 L 26.558594 27.515625 C 26.558594 27.375 26.570312 27.320312 26.730469 27.320312 L 27.992188 27.320312 L 27.992188 22.105469 L 26.773438 22.300781 C 26.636719 22.332031 26.601562 22.277344 26.601562 22.160156 L 26.601562 21.65625 C 26.601562 21.527344 26.625 21.464844 26.785156 21.421875 L 28.398438 20.949219 C 28.726562 20.851562 29.027344 20.925781 29.027344 21.269531 L 29.027344 27.320312 L 30.328125 27.320312 C 30.492188 27.320312 30.5 27.375 30.5 27.515625 L 30.5 28.074219 C 30.5 28.210938 30.492188 28.265625 30.328125 28.265625 Z M 30.328125 28.265625 "/>
<path style=" stroke:none;fill-rule:nonzero;fill:rgb(75.294118%,77.254902%,79.215686%);fill-opacity:1;" d="M 34.789062 28.382812 C 32.859375 28.382812 31.960938 26.914062 31.960938 24.671875 C 31.960938 22.425781 32.890625 20.9375 34.8125 20.9375 C 36.863281 20.9375 37.640625 22.417969 37.640625 24.648438 C 37.640625 26.878906 36.785156 28.382812 34.789062 28.382812 Z M 34.789062 21.828125 C 33.421875 21.828125 33.027344 23.234375 33.027344 24.648438 C 33.027344 26.066406 33.402344 27.503906 34.8125 27.503906 C 36.21875 27.503906 36.582031 26.054688 36.582031 24.671875 C 36.582031 23.289062 36.175781 21.828125 34.789062 21.828125 Z M 34.789062 21.828125 "/>
<path style=" stroke:none;fill-rule:nonzero;fill:rgb(75.294118%,77.254902%,79.215686%);fill-opacity:1;" d="M 43.027344 28.265625 L 39.433594 28.265625 C 39.273438 28.265625 39.261719 28.210938 39.261719 28.074219 L 39.261719 27.515625 C 39.261719 27.375 39.269531 27.320312 39.433594 27.320312 L 40.691406 27.320312 L 40.691406 22.105469 L 39.472656 22.300781 C 39.335938 22.332031 39.304688 22.277344 39.304688 22.160156 L 39.304688 21.65625 C 39.304688 21.527344 39.324219 21.464844 39.484375 21.421875 L 41.097656 20.949219 C 41.429688 20.851562 41.726562 20.925781 41.726562 21.269531 L 41.726562 27.320312 L 43.03125 27.320312 C 43.191406 27.320312 43.199219 27.375 43.199219 27.515625 L 43.199219 28.074219 C 43.199219 28.210938 43.191406 28.265625 43.03125 28.265625 Z M 43.027344 28.265625 "/>
<path style=" stroke:none;fill-rule:nonzero;fill:rgb(75.294118%,77.254902%,79.215686%);fill-opacity:1;" d="M 23.980469 39.660156 L 20.382812 39.660156 C 20.222656 39.660156 20.210938 39.605469 20.210938 39.46875 L 20.210938 38.910156 C 20.210938 38.769531 20.222656 38.714844 20.382812 38.714844 L 21.640625 38.714844 L 21.640625 33.5 L 20.425781 33.695312 C 20.285156 33.726562 20.253906 33.671875 20.253906 33.554688 L 20.253906 33.050781 C 20.253906 32.921875 20.273438 32.859375 20.433594 32.816406 L 22.046875 32.34375 C 22.378906 32.246094 22.675781 32.320312 22.675781 32.664062 L 22.675781 38.714844 L 23.980469 38.714844 C 24.140625 38.714844 24.152344 38.769531 24.152344 38.910156 L 24.152344 39.46875 C 24.152344 39.605469 24.140625 39.660156 23.980469 39.660156 Z M 23.980469 39.660156 "/>
<path style=" stroke:none;fill-rule:nonzero;fill:rgb(75.294118%,77.254902%,79.215686%);fill-opacity:1;" d="M 30.328125 39.660156 L 26.730469 39.660156 C 26.570312 39.660156 26.558594 39.605469 26.558594 39.46875 L 26.558594 38.910156 C 26.558594 38.769531 26.570312 38.714844 26.730469 38.714844 L 27.992188 38.714844 L 27.992188 33.5 L 26.773438 33.695312 C 26.636719 33.726562 26.601562 33.671875 26.601562 33.554688 L 26.601562 33.050781 C 26.601562 32.921875 26.625 32.859375 26.785156 32.816406 L 28.398438 32.34375 C 28.726562 32.246094 29.027344 32.320312 29.027344 32.664062 L 29.027344 38.714844 L 30.328125 38.714844 C 30.492188 38.714844 30.5 38.769531 30.5 38.910156 L 30.5 39.46875 C 30.5 39.605469 30.492188 39.660156 30.328125 39.660156 Z M 30.328125 39.660156 "/>
<path style=" stroke:none;fill-rule:nonzero;fill:rgb(75.294118%,77.254902%,79.215686%);fill-opacity:1;" d="M 34.789062 39.777344 C 32.859375 39.777344 31.960938 38.308594 31.960938 36.0625 C 31.960938 33.820312 32.890625 32.328125 34.8125 32.328125 C 36.863281 32.328125 37.640625 33.808594 37.640625 36.042969 C 37.640625 38.273438 36.785156 39.777344 34.789062 39.777344 Z M 34.789062 33.21875 C 33.421875 33.21875 33.027344 34.625 33.027344 36.042969 C 33.027344 37.460938 33.402344 38.898438 34.8125 38.898438 C 36.21875 38.898438 36.582031 37.449219 36.582031 36.066406 C 36.582031 34.679688 36.175781 33.222656 34.789062 33.222656 Z M 34.789062 33.21875 "/>
<path style=" stroke:none;fill-rule:nonzero;fill:rgb(75.294118%,77.254902%,79.215686%);fill-opacity:1;" d="M 43.027344 39.660156 L 39.433594 39.660156 C 39.273438 39.660156 39.261719 39.605469 39.261719 39.46875 L 39.261719 38.910156 C 39.261719 38.769531 39.269531 38.714844 39.433594 38.714844 L 40.691406 38.714844 L 40.691406 33.5 L 39.472656 33.695312 C 39.335938 33.726562 39.304688 33.671875 39.304688 33.554688 L 39.304688 33.050781 C 39.304688 32.921875 39.324219 32.859375 39.484375 32.816406 L 41.097656 32.34375 C 41.429688 32.246094 41.726562 32.320312 41.726562 32.664062 L 41.726562 38.714844 L 43.03125 38.714844 C 43.191406 38.714844 43.199219 38.769531 43.199219 38.910156 L 43.199219 39.46875 C 43.199219 39.605469 43.191406 39.660156 43.03125 39.660156 Z M 43.027344 39.660156 "/>
<path style=" stroke:none;fill-rule:nonzero;fill:rgb(84.705882%,85.882353%,87.45098%);fill-opacity:1;" d="M 22.179688 46.859375 L 12.785156 46.859375 L 12.785156 9.242188 L 49.675781 9.242188 L 49.675781 37.976562 L 49.019531 37.976562 L 49.019531 9.898438 L 13.441406 9.898438 L 13.441406 46.199219 L 22.179688 46.199219 Z M 22.179688 46.859375 "/>
<path style=" stroke:none;fill-rule:nonzero;fill:rgb(84.705882%,85.882353%,87.45098%);fill-opacity:1;" d="M 41.230469 46.859375 L 40.355469 46.859375 L 40.355469 46.199219 L 41.230469 46.199219 Z M 39.480469 46.859375 L 38.605469 46.859375 L 38.605469 46.199219 L 39.480469 46.199219 Z M 37.730469 46.859375 L 36.855469 46.859375 L 36.855469 46.199219 L 37.730469 46.199219 Z M 35.984375 46.859375 L 35.105469 46.859375 L 35.105469 46.199219 L 35.984375 46.199219 Z M 34.234375 46.859375 L 33.359375 46.859375 L 33.359375 46.199219 L 34.234375 46.199219 Z M 32.484375 46.859375 L 31.609375 46.859375 L 31.609375 46.199219 L 32.484375 46.199219 Z M 30.734375 46.859375 L 29.859375 46.859375 L 29.859375 46.199219 L 30.734375 46.199219 Z M 28.984375 46.859375 L 28.109375 46.859375 L 28.109375 46.199219 L 28.984375 46.199219 Z M 27.234375 46.859375 L 26.359375 46.859375 L 26.359375 46.199219 L 27.234375 46.199219 Z M 25.488281 46.859375 L 24.613281 46.859375 L 24.613281 46.199219 L 25.488281 46.199219 Z M 23.738281 46.859375 L 22.863281 46.859375 L 22.863281 46.199219 L 23.738281 46.199219 Z M 23.738281 46.859375 "/>
<path style=" stroke:none;fill-rule:nonzero;fill:rgb(84.705882%,85.882353%,87.45098%);fill-opacity:1;" d="M 42.0625 15.632812 L 41.1875 15.632812 L 41.1875 14.972656 L 42.0625 14.972656 Z M 40.3125 15.632812 L 39.4375 15.632812 L 39.4375 14.972656 L 40.3125 14.972656 Z M 38.5625 15.632812 L 37.6875 15.632812 L 37.6875 14.972656 L 38.5625 14.972656 Z M 36.8125 15.632812 L 35.9375 15.632812 L 35.9375 14.972656 L 36.8125 14.972656 Z M 35.066406 15.632812 L 34.191406 15.632812 L 34.191406 14.972656 L 35.066406 14.972656 Z M 33.316406 15.632812 L 32.441406 15.632812 L 32.441406 14.972656 L 33.316406 14.972656 Z M 31.566406 15.632812 L 30.691406 15.632812 L 30.691406 14.972656 L 31.566406 14.972656 Z M 29.816406 15.632812 L 28.941406 15.632812 L 28.941406 14.972656 L 29.816406 14.972656 Z M 28.066406 15.632812 L 27.191406 15.632812 L 27.191406 14.972656 L 28.066406 14.972656 Z M 26.316406 15.632812 L 25.441406 15.632812 L 25.441406 14.972656 L 26.316406 14.972656 Z M 24.570312 15.632812 L 23.695312 15.632812 L 23.695312 14.972656 L 24.570312 14.972656 Z M 22.820312 15.632812 L 21.945312 15.632812 L 21.945312 14.972656 L 22.820312 14.972656 Z M 21.070312 15.632812 L 20.195312 15.632812 L 20.195312 14.972656 L 21.070312 14.972656 Z M 21.070312 15.632812 "/>
<path style=" stroke:none;fill-rule:nonzero;fill:rgb(84.705882%,85.882353%,87.45098%);fill-opacity:1;" d="M 9.714844 13.019531 L 10.371094 13.019531 L 10.371094 46.933594 L 9.714844 46.933594 Z M 9.714844 13.019531 "/>
<path style=" stroke:none;fill-rule:nonzero;fill:rgb(75.294118%,77.254902%,79.215686%);fill-opacity:1;" d="M 76.730469 19.59375 L 64.992188 12.402344 L 76.730469 5.496094 L 88.46875 12.402344 Z M 66.273438 12.414062 L 76.730469 18.820312 L 87.1875 12.414062 L 76.730469 6.261719 Z M 66.273438 12.414062 "/>
<path style=" stroke:none;fill-rule:nonzero;fill:rgb(84.705882%,85.882353%,87.45098%);fill-opacity:1;" d="M 57.027344 23.003906 L 56.371094 23.003906 L 56.371094 12.25 L 62.789062 12.25 L 62.789062 12.910156 L 57.027344 12.910156 Z M 57.027344 23.003906 "/>
<path style=" stroke:none;fill-rule:nonzero;fill:rgb(84.705882%,85.882353%,87.45098%);fill-opacity:1;" d="M 71.714844 32.9375 L 52.246094 32.9375 L 52.246094 25.082031 L 71.714844 25.082031 Z M 52.902344 32.277344 L 71.058594 32.277344 L 71.058594 25.738281 L 52.902344 25.738281 Z M 52.902344 32.277344 "/>
<path style=" stroke:none;fill-rule:nonzero;fill:rgb(84.705882%,85.882353%,87.45098%);fill-opacity:1;" d="M 97.308594 23.003906 L 96.65625 23.003906 L 96.65625 12.910156 L 90.890625 12.910156 L 90.890625 12.25 L 97.308594 12.25 Z M 97.308594 23.003906 "/>
<path style=" stroke:none;fill-rule:nonzero;fill:rgb(84.705882%,85.882353%,87.45098%);fill-opacity:1;" d="M 101.433594 32.9375 L 81.964844 32.9375 L 81.964844 25.082031 L 101.433594 25.082031 Z M 82.621094 32.277344 L 100.777344 32.277344 L 100.777344 25.738281 L 82.621094 25.738281 Z M 82.621094 32.277344 "/>
<path style=" stroke:none;fill-rule:nonzero;fill:rgb(75.294118%,77.254902%,79.215686%);fill-opacity:1;" d="M 91.609375 42.839844 L 83.703125 42.839844 L 83.703125 42.179688 L 90.953125 42.179688 L 90.953125 34.902344 L 91.609375 34.902344 Z M 91.609375 42.839844 "/>
<path style=" stroke:none;fill-rule:nonzero;fill:rgb(75.294118%,77.254902%,79.215686%);fill-opacity:1;" d="M 76.730469 47.699219 C 73.882812 47.699219 71.566406 45.371094 71.566406 42.511719 C 71.566406 39.648438 73.882812 37.320312 76.730469 37.320312 C 79.578125 37.320312 81.894531 39.648438 81.894531 42.511719 C 81.894531 45.371094 79.578125 47.699219 76.730469 47.699219 Z M 76.730469 37.980469 C 74.246094 37.980469 72.222656 40.011719 72.222656 42.511719 C 72.222656 45.007812 74.246094 47.042969 76.730469 47.042969 C 79.214844 47.042969 81.238281 45.007812 81.238281 42.511719 C 81.238281 40.011719 79.214844 37.980469 76.730469 37.980469 Z M 76.730469 37.980469 "/>
<path style=" stroke:none;fill-rule:nonzero;fill:rgb(75.294118%,77.254902%,79.215686%);fill-opacity:1;" d="M 76.402344 0 L 77.058594 0 L 77.058594 5.878906 L 76.402344 5.878906 Z M 76.402344 0 "/>
<path style=" stroke:none;fill-rule:nonzero;fill:rgb(84.705882%,85.882353%,87.45098%);fill-opacity:1;" d="M 67.070312 29.339844 L 66.195312 29.339844 L 66.195312 28.679688 L 67.070312 28.679688 Z M 65.320312 29.339844 L 64.445312 29.339844 L 64.445312 28.679688 L 65.320312 28.679688 Z M 63.570312 29.339844 L 62.695312 29.339844 L 62.695312 28.679688 L 63.570312 28.679688 Z M 61.820312 29.339844 L 60.945312 29.339844 L 60.945312 28.679688 L 61.820312 28.679688 Z M 60.070312 29.339844 L 59.195312 29.339844 L 59.195312 28.679688 L 60.070312 28.679688 Z M 58.324219 29.339844 L 57.445312 29.339844 L 57.445312 28.679688 L 58.324219 28.679688 Z M 58.324219 29.339844 "/>
<path style=" stroke:none;fill-rule:nonzero;fill:rgb(84.705882%,85.882353%,87.45098%);fill-opacity:1;" d="M 96.367188 29.339844 L 95.492188 29.339844 L 95.492188 28.679688 L 96.367188 28.679688 Z M 94.617188 29.339844 L 93.742188 29.339844 L 93.742188 28.679688 L 94.617188 28.679688 Z M 92.867188 29.339844 L 91.992188 29.339844 L 91.992188 28.679688 L 92.867188 28.679688 Z M 91.121094 29.339844 L 90.246094 29.339844 L 90.246094 28.679688 L 91.121094 28.679688 Z M 89.371094 29.339844 L 88.496094 29.339844 L 88.496094 28.679688 L 89.371094 28.679688 Z M 87.621094 29.339844 L 86.746094 29.339844 L 86.746094 28.679688 L 87.621094 28.679688 Z M 87.621094 29.339844 "/>
<path style=" stroke:none;fill-rule:nonzero;fill:rgb(84.705882%,85.882353%,87.45098%);fill-opacity:1;" d="M 17.449219 97.183594 L 16.992188 96.714844 L 21.917969 91.839844 L 17.070312 86.886719 L 17.539062 86.425781 L 22.847656 91.847656 Z M 17.449219 97.183594 "/>
<path style=" stroke:none;fill-rule:nonzero;fill:rgb(84.705882%,85.882353%,87.45098%);fill-opacity:1;" d="M 10.324219 88.667969 L 19.679688 88.667969 L 19.679688 89.328125 L 10.324219 89.328125 Z M 10.324219 88.667969 "/>
<path style=" stroke:none;fill-rule:nonzero;fill:rgb(84.705882%,85.882353%,87.45098%);fill-opacity:1;" d="M 7.738281 89 C 3.164062 87.792969 -0.015625 83.660156 0 78.949219 C 0.0117188 75.761719 1.429688 72.820312 3.898438 70.84375 C 3.464844 69.4375 3.246094 67.976562 3.246094 66.5 C 3.246094 58.390625 9.808594 51.792969 17.878906 51.792969 C 23.222656 51.792969 28.09375 54.6875 30.675781 59.375 C 32.289062 58.394531 34.128906 57.875 36.015625 57.875 C 39.550781 57.875 42.804688 59.664062 44.714844 62.664062 L 44.160156 63.019531 C 42.371094 60.210938 39.328125 58.535156 36.015625 58.535156 C 34.136719 58.535156 32.308594 59.082031 30.734375 60.121094 L 30.429688 60.316406 L 30.265625 59.996094 C 27.839844 55.34375 23.09375 52.453125 17.875 52.453125 C 10.167969 52.453125 3.902344 58.753906 3.902344 66.5 C 3.902344 67.984375 4.132812 69.453125 4.589844 70.863281 L 4.664062 71.085938 L 4.476562 71.226562 C 2.058594 73.078125 0.667969 75.894531 0.65625 78.953125 C 0.640625 83.363281 3.621094 87.230469 7.90625 88.363281 Z M 7.738281 89 "/>
<path style=" stroke:none;fill-rule:nonzero;fill:rgb(84.705882%,85.882353%,87.45098%);fill-opacity:1;" d="M 7.3125 69.769531 C 6.949219 68.648438 6.765625 67.484375 6.765625 66.308594 C 6.765625 60.164062 11.742188 55.164062 17.855469 55.164062 L 17.855469 55.824219 C 12.101562 55.824219 7.421875 60.527344 7.421875 66.308594 C 7.421875 67.414062 7.597656 68.511719 7.9375 69.5625 L 7.316406 69.769531 Z M 7.3125 69.769531 "/>
<path style=" stroke:none;fill-rule:nonzero;fill:rgb(84.705882%,85.882353%,87.45098%);fill-opacity:1;" d="M 19.625 55.949219 C 19.027344 55.839844 18.4375 55.796875 17.867188 55.820312 L 17.839844 55.164062 C 18.460938 55.136719 19.097656 55.183594 19.738281 55.300781 Z M 19.625 55.949219 "/>
<path style=" stroke:none;fill-rule:nonzero;fill:rgb(84.705882%,85.882353%,87.45098%);fill-opacity:1;" d="M 23.960938 57.800781 C 23.800781 57.628906 23.59375 57.460938 23.34375 57.292969 L 23.703125 56.742188 C 23.992188 56.9375 24.242188 57.140625 24.4375 57.347656 Z M 22.617188 56.886719 C 22.378906 56.769531 22.117188 56.65625 21.839844 56.554688 L 22.070312 55.9375 C 22.363281 56.046875 22.644531 56.167969 22.902344 56.292969 Z M 21.03125 56.285156 C 20.765625 56.207031 20.488281 56.132812 20.203125 56.070312 L 20.351562 55.425781 C 20.644531 55.492188 20.9375 55.570312 21.214844 55.652344 Z M 21.03125 56.285156 "/>
<path style=" stroke:none;fill-rule:nonzero;fill:rgb(84.705882%,85.882353%,87.45098%);fill-opacity:1;" d="M 10.742188 94.21875 L 19.441406 94.21875 L 19.441406 94.878906 L 10.742188 94.878906 Z M 10.742188 94.21875 "/>
<path style=" stroke:none;fill-rule:nonzero;fill:rgb(84.705882%,85.882353%,87.45098%);fill-opacity:1;" d="M 41.34375 84.03125 L 40.46875 84.03125 L 40.46875 83.371094 L 41.34375 83.371094 Z M 39.597656 84.03125 L 38.722656 84.03125 L 38.722656 83.371094 L 39.597656 83.371094 Z M 37.847656 84.03125 L 36.972656 84.03125 L 36.972656 83.371094 L 37.847656 83.371094 Z M 36.097656 84.03125 L 35.222656 84.03125 L 35.222656 83.371094 L 36.097656 83.371094 Z M 34.347656 84.03125 L 33.472656 84.03125 L 33.472656 83.371094 L 34.347656 83.371094 Z M 32.597656 84.03125 L 31.722656 84.03125 L 31.722656 83.371094 L 32.597656 83.371094 Z M 32.597656 84.03125 "/>
<path style=" stroke:none;fill-rule:nonzero;fill:rgb(84.705882%,85.882353%,87.45098%);fill-opacity:1;" d="M 29.316406 79.503906 L 29.363281 75.78125 L 30.023438 75.789062 L 29.972656 79.511719 Z M 29.316406 79.503906 "/>
<path style=" stroke:none;fill-rule:nonzero;fill:rgb(84.705882%,85.882353%,87.45098%);fill-opacity:1;" d="M 29.160156 91.519531 L 29.207031 87.800781 L 29.863281 87.808594 L 29.816406 91.53125 Z M 29.160156 91.519531 "/>
<path style=" stroke:none;fill-rule:nonzero;fill:rgb(75.294118%,77.254902%,79.215686%);fill-opacity:1;" d="M 41.527344 76.238281 L 27.609375 76.238281 C 26.585938 76.238281 25.753906 75.402344 25.753906 74.375 L 25.753906 69.300781 C 25.753906 68.269531 26.585938 67.433594 27.609375 67.433594 L 41.527344 67.433594 L 41.527344 68.09375 L 27.609375 68.09375 C 26.949219 68.09375 26.410156 68.636719 26.410156 69.300781 L 26.410156 74.375 C 26.410156 75.039062 26.949219 75.578125 27.609375 75.578125 L 41.527344 75.578125 Z M 41.527344 76.238281 "/>
<path style=" stroke:none;fill-rule:nonzero;fill:rgb(75.294118%,77.254902%,79.215686%);fill-opacity:1;" d="M 41.527344 88.101562 L 27.609375 88.101562 C 26.585938 88.101562 25.753906 87.265625 25.753906 86.238281 L 25.753906 81.164062 C 25.753906 80.132812 26.585938 79.300781 27.609375 79.300781 L 41.730469 79.300781 L 41.730469 79.957031 L 27.609375 79.957031 C 26.949219 79.957031 26.410156 80.5 26.410156 81.164062 L 26.410156 86.238281 C 26.410156 86.902344 26.949219 87.441406 27.609375 87.441406 L 41.527344 87.441406 Z M 41.527344 88.101562 "/>
<path style=" stroke:none;fill-rule:nonzero;fill:rgb(75.294118%,77.254902%,79.215686%);fill-opacity:1;" d="M 49.289062 99.964844 L 27.609375 99.964844 C 26.585938 99.964844 25.753906 99.128906 25.753906 98.101562 L 25.753906 93.027344 C 25.753906 92 26.585938 91.164062 27.609375 91.164062 L 41.730469 91.164062 L 41.730469 91.824219 L 27.609375 91.824219 C 26.949219 91.824219 26.410156 92.363281 26.410156 93.027344 L 26.410156 98.101562 C 26.410156 98.765625 26.949219 99.304688 27.609375 99.304688 L 49.289062 99.304688 C 49.949219 99.304688 50.484375 98.765625 50.484375 98.101562 L 51.140625 98.101562 C 51.140625 99.128906 50.308594 99.964844 49.289062 99.964844 Z M 49.289062 99.964844 "/>
<path style=" stroke:none;fill-rule:nonzero;fill:rgb(100%,100%,100%);fill-opacity:1;" d="M 59.71875 51.84375 C 59.71875 53.484375 58.398438 54.8125 56.769531 54.8125 C 55.136719 54.8125 53.816406 53.484375 53.816406 51.84375 C 53.816406 50.207031 55.136719 48.878906 56.769531 48.878906 C 58.398438 48.878906 59.71875 50.207031 59.71875 51.84375 Z M 59.71875 51.84375 "/>
<path style=" stroke:none;fill-rule:nonzero;fill:rgb(100%,100%,100%);fill-opacity:1;" d="M 48.636719 43.496094 C 48.636719 44.59375 47.75 45.484375 46.660156 45.484375 C 45.570312 45.484375 44.683594 44.59375 44.683594 43.496094 C 44.683594 42.402344 45.570312 41.511719 46.660156 41.511719 C 47.75 41.511719 48.636719 42.402344 48.636719 43.496094 Z M 48.636719 43.496094 "/>
<path style=" stroke:none;fill-rule:nonzero;fill:rgb(100%,100%,100%);fill-opacity:1;" d="M 68.25 43.65625 C 68.25 44.839844 67.296875 45.796875 66.117188 45.796875 C 64.941406 45.796875 63.984375 44.839844 63.984375 43.65625 C 63.984375 42.472656 64.941406 41.511719 66.117188 41.511719 C 67.296875 41.511719 68.25 42.472656 68.25 43.65625 Z M 68.25 43.65625 "/>
<path style=" stroke:none;fill-rule:nonzero;fill:rgb(100%,100%,100%);fill-opacity:1;" d="M 53.109375 83.390625 L 57.164062 83.390625 L 55.132812 77.507812 Z M 53.109375 83.390625 "/>
<path style=" stroke:none;fill-rule:nonzero;fill:rgb(100%,100%,100%);fill-opacity:1;" d="M 68.824219 77.800781 C 68.339844 77.511719 67.363281 77.363281 65.902344 77.363281 L 64.386719 77.363281 L 64.386719 81.425781 L 65.902344 81.425781 C 67.300781 81.425781 68.257812 81.269531 68.777344 80.960938 C 69.292969 80.648438 69.550781 80.113281 69.550781 79.351562 C 69.550781 78.59375 69.308594 78.089844 68.824219 77.800781 Z M 68.824219 77.800781 "/>
<path style=" stroke:none;fill-rule:nonzero;fill:rgb(100%,100%,100%);fill-opacity:1;" d="M 44.4375 72.566406 L 44.4375 94.546875 L 87.492188 94.546875 L 87.492188 72.566406 Z M 58.667969 87.789062 L 57.605469 84.710938 L 52.671875 84.710938 L 51.664062 87.789062 L 49.917969 87.789062 L 54.261719 75.878906 L 56.085938 75.878906 L 60.4375 87.789062 Z M 70.136719 81.996094 C 69.347656 82.609375 68.195312 82.917969 66.679688 82.917969 L 64.386719 82.917969 L 64.386719 87.789062 L 62.691406 87.789062 L 62.691406 75.878906 L 66.894531 75.878906 C 68.328125 75.878906 69.425781 76.171875 70.179688 76.753906 C 70.9375 77.339844 71.316406 78.191406 71.316406 79.308594 C 71.316406 80.484375 70.921875 81.378906 70.136719 81.996094 Z M 75.78125 87.789062 L 74.085938 87.789062 L 74.085938 75.878906 L 75.78125 75.878906 Z M 75.78125 87.789062 "/>
<path style=" stroke:none;fill-rule:nonzero;fill:rgb(100%,100%,100%);fill-opacity:1;" d="M 85.898438 92.6875 L 43.007812 92.6875 L 43.007812 66.679688 L 85.898438 66.679688 L 85.898438 74.714844 L 85.242188 74.714844 L 85.242188 67.339844 L 43.660156 67.339844 L 43.660156 92.03125 L 85.242188 92.03125 L 85.242188 88.84375 L 85.898438 88.84375 Z M 85.898438 92.6875 "/>
<path style=" stroke:none;fill-rule:nonzero;fill:rgb(100%,100%,100%);fill-opacity:1;" d="M 85.898438 90.886719 L 85.242188 90.886719 L 85.242188 90.007812 L 85.898438 90.007812 Z M 85.898438 89.128906 L 85.242188 89.128906 L 85.242188 88.25 L 85.898438 88.25 Z M 85.898438 87.371094 L 85.242188 87.371094 L 85.242188 86.488281 L 85.898438 86.488281 Z M 85.898438 85.609375 L 85.242188 85.609375 L 85.242188 84.730469 L 85.898438 84.730469 Z M 85.898438 83.851562 L 85.242188 83.851562 L 85.242188 82.972656 L 85.898438 82.972656 Z M 85.898438 82.09375 L 85.242188 82.09375 L 85.242188 81.214844 L 85.898438 81.214844 Z M 85.898438 80.335938 L 85.242188 80.335938 L 85.242188 79.457031 L 85.898438 79.457031 Z M 85.898438 78.578125 L 85.242188 78.578125 L 85.242188 77.699219 L 85.898438 77.699219 Z M 85.898438 76.820312 L 85.242188 76.820312 L 85.242188 75.941406 L 85.898438 75.941406 Z M 85.898438 75.0625 L 85.242188 75.0625 L 85.242188 74.179688 L 85.898438 74.179688 Z M 85.898438 75.0625 "/>
<path style=" stroke:none;fill-rule:nonzero;fill:rgb(100%,100%,100%);fill-opacity:1;" d="M 43.335938 95.996094 L 80.914062 95.996094 L 80.914062 96.652344 L 43.335938 96.652344 Z M 43.335938 95.996094 "/>
<path style=" stroke:none;fill-rule:nonzero;fill:rgb(100%,100%,100%);fill-opacity:1;" d="M 83.71875 95.996094 L 86.257812 95.996094 L 86.257812 96.652344 L 83.71875 96.652344 Z M 83.71875 95.996094 "/>
<path style=" stroke:none;fill-rule:nonzero;fill:rgb(100%,100%,100%);fill-opacity:1;" d="M 45.359375 44.824219 C 44.0625 44.824219 43.003906 43.765625 43.003906 42.457031 C 43.003906 41.152344 44.0625 40.089844 45.359375 40.089844 C 46.660156 40.089844 47.714844 41.152344 47.714844 42.457031 C 47.714844 43.765625 46.660156 44.824219 45.359375 44.824219 Z M 45.359375 40.75 C 44.425781 40.75 43.660156 41.519531 43.660156 42.460938 C 43.660156 43.402344 44.425781 44.167969 45.359375 44.167969 C 46.296875 44.167969 47.058594 43.402344 47.058594 42.460938 C 47.058594 41.519531 46.296875 40.75 45.359375 40.75 Z M 45.359375 40.75 "/>
<path style=" stroke:none;fill-rule:nonzero;fill:rgb(100%,100%,100%);fill-opacity:1;" d="M 48.964844 64.472656 L 48.308594 64.472656 L 48.308594 58.597656 L 45.03125 55.304688 L 45.03125 46.917969 L 45.691406 46.917969 L 45.691406 55.03125 L 48.964844 58.324219 Z M 48.964844 64.472656 "/>
<path style=" stroke:none;fill-rule:nonzero;fill:rgb(100%,100%,100%);fill-opacity:1;" d="M 65.285156 44.824219 C 63.988281 44.824219 62.933594 43.765625 62.933594 42.457031 C 62.933594 41.152344 63.988281 40.089844 65.285156 40.089844 C 66.585938 40.089844 67.640625 41.152344 67.640625 42.457031 C 67.640625 43.765625 66.585938 44.824219 65.285156 44.824219 Z M 65.285156 40.75 C 64.347656 40.75 63.585938 41.519531 63.585938 42.460938 C 63.585938 43.402344 64.347656 44.167969 65.285156 44.167969 C 66.222656 44.167969 66.984375 43.402344 66.984375 42.460938 C 66.984375 41.519531 66.222656 40.75 65.285156 40.75 Z M 65.285156 40.75 "/>
<path style=" stroke:none;fill-rule:nonzero;fill:rgb(100%,100%,100%);fill-opacity:1;" d="M 62.339844 64.472656 L 61.683594 64.472656 L 61.683594 58.324219 L 64.957031 55.03125 L 64.957031 46.917969 L 65.613281 46.917969 L 65.613281 55.304688 L 62.339844 58.597656 Z M 62.339844 64.472656 "/>
<path style=" stroke:none;fill-rule:nonzero;fill:rgb(100%,100%,100%);fill-opacity:1;" d="M 55.324219 54.371094 C 53.476562 54.371094 51.972656 52.859375 51.972656 51.003906 C 51.972656 49.148438 53.476562 47.636719 55.324219 47.636719 C 57.171875 47.636719 58.671875 49.148438 58.671875 51.003906 C 58.671875 52.859375 57.171875 54.371094 55.324219 54.371094 Z M 55.324219 48.296875 C 53.839844 48.296875 52.628906 49.511719 52.628906 51.003906 C 52.628906 52.496094 53.839844 53.710938 55.324219 53.710938 C 56.808594 53.710938 58.015625 52.496094 58.015625 51.003906 C 58.015625 49.511719 56.808594 48.296875 55.324219 48.296875 Z M 55.324219 48.296875 "/>
<path style=" stroke:none;fill-rule:nonzero;fill:rgb(100%,100%,100%);fill-opacity:1;" d="M 54.996094 56.644531 L 55.652344 56.644531 L 55.652344 64.472656 L 54.996094 64.472656 Z M 54.996094 56.644531 "/>
<path style=" stroke:none;fill-rule:nonzero;fill:rgb(100%,100%,100%);fill-opacity:1;" d="M 43.335938 71.101562 L 85.570312 71.101562 L 85.570312 71.761719 L 43.335938 71.761719 Z M 43.335938 71.101562 "/>
<path style=" stroke:none;fill-rule:nonzero;fill:rgb(100%,100%,100%);fill-opacity:1;" d="M 79.984375 67.007812 L 80.640625 67.007812 L 80.640625 71.429688 L 79.984375 71.429688 Z M 79.984375 67.007812 "/>
<path style=" stroke:none;fill-rule:nonzero;fill:rgb(100%,100%,100%);fill-opacity:1;" d="M 88.648438 82.941406 L 88.648438 82.28125 C 93.976562 82.28125 98.3125 77.921875 98.3125 72.566406 C 98.3125 69.71875 97.074219 67.023438 94.910156 65.171875 L 94.722656 65.011719 L 94.820312 64.785156 C 95.429688 63.402344 95.734375 61.9375 95.734375 60.433594 C 95.734375 54.480469 90.914062 49.632812 84.988281 49.632812 C 80.246094 49.632812 76.121094 52.691406 74.722656 57.242188 L 74.664062 57.429688 L 74.46875 57.46875 C 70.945312 58.132812 68.011719 60.792969 66.996094 64.246094 L 66.367188 64.058594 C 67.453125 60.378906 70.425781 57.636719 74.15625 56.859375 C 75.695312 52.132812 80.023438 48.976562 84.988281 48.976562 C 91.277344 48.976562 96.390625 54.117188 96.390625 60.4375 C 96.390625 61.953125 96.097656 63.429688 95.515625 64.832031 C 97.714844 66.804688 98.96875 69.609375 98.96875 72.566406 C 98.96875 78.289062 94.339844 82.945312 88.648438 82.945312 Z M 88.648438 82.941406 "/>
<path style=" stroke:none;fill-rule:nonzero;fill:rgb(100%,100%,100%);fill-opacity:1;" d="M 81.339844 59.03125 C 77.625 56.675781 73.855469 57.605469 73.816406 57.613281 L 73.652344 56.976562 C 73.816406 56.933594 77.726562 55.960938 81.691406 58.472656 L 81.339844 59.027344 Z M 81.339844 59.03125 "/>
<path style=" stroke:none;fill-rule:nonzero;fill:rgb(100%,100%,100%);fill-opacity:1;" d="M 89.402344 86.394531 L 89.402344 85.738281 C 89.457031 85.738281 95.230469 85.675781 98.695312 81.097656 L 99.21875 81.496094 C 95.554688 86.339844 89.652344 86.394531 89.402344 86.394531 Z M 89.402344 86.394531 "/>
<path style=" stroke:none;fill-rule:nonzero;fill:rgb(100%,100%,100%);fill-opacity:1;" d="M 46.425781 68.839844 C 46.425781 69.328125 46.085938 69.648438 45.570312 69.648438 L 44.976562 69.648438 L 44.976562 70.425781 L 44.570312 70.425781 L 44.570312 68.027344 L 45.570312 68.027344 C 46.085938 68.027344 46.425781 68.347656 46.425781 68.839844 Z M 46.023438 68.839844 C 46.023438 68.554688 45.835938 68.378906 45.539062 68.378906 L 44.976562 68.378906 L 44.976562 69.300781 L 45.539062 69.300781 C 45.835938 69.300781 46.023438 69.121094 46.023438 68.839844 Z M 46.023438 68.839844 "/>
<path style=" stroke:none;fill-rule:nonzero;fill:rgb(100%,100%,100%);fill-opacity:1;" d="M 47.734375 68.589844 L 47.734375 68.957031 L 47.648438 68.957031 C 47.300781 68.957031 47.09375 69.171875 47.09375 69.425781 L 47.09375 70.425781 L 46.710938 70.425781 L 46.710938 68.632812 L 47.09375 68.632812 L 47.09375 68.957031 L 47.117188 68.957031 C 47.195312 68.726562 47.390625 68.589844 47.664062 68.589844 Z M 47.734375 68.589844 "/>
<path style=" stroke:none;fill-rule:nonzero;fill:rgb(100%,100%,100%);fill-opacity:1;" d="M 48.222656 69.664062 L 48.222656 69.792969 C 48.222656 70.011719 48.390625 70.15625 48.652344 70.15625 C 48.894531 70.15625 49.058594 70.050781 49.058594 69.890625 L 49.058594 69.882812 L 49.441406 69.882812 L 49.441406 69.894531 C 49.441406 70.238281 49.125 70.46875 48.652344 70.46875 C 48.175781 70.46875 47.835938 70.195312 47.835938 69.785156 L 47.835938 69.277344 C 47.835938 68.863281 48.15625 68.59375 48.640625 68.59375 C 49.125 68.59375 49.441406 68.863281 49.441406 69.277344 L 49.441406 69.667969 L 48.222656 69.667969 Z M 48.222656 69.261719 L 48.222656 69.371094 L 49.058594 69.371094 L 49.058594 69.261719 C 49.058594 69.042969 48.894531 68.902344 48.640625 68.902344 C 48.390625 68.902344 48.222656 69.042969 48.222656 69.261719 Z M 48.222656 69.261719 "/>
<path style=" stroke:none;fill-rule:nonzero;fill:rgb(100%,100%,100%);fill-opacity:1;" d="M 49.644531 69.917969 L 49.644531 69.882812 L 50.039062 69.882812 L 50.039062 69.914062 C 50.039062 70.0625 50.1875 70.15625 50.414062 70.15625 C 50.640625 70.15625 50.769531 70.070312 50.769531 69.9375 C 50.769531 69.574219 49.667969 69.8125 49.667969 69.132812 C 49.667969 68.785156 49.957031 68.59375 50.386719 68.59375 C 50.84375 68.59375 51.125 68.808594 51.125 69.113281 L 51.125 69.144531 L 50.734375 69.144531 L 50.734375 69.121094 C 50.734375 68.988281 50.601562 68.902344 50.394531 68.902344 C 50.1875 68.902344 50.074219 68.984375 50.074219 69.109375 C 50.074219 69.464844 51.171875 69.214844 51.171875 69.902344 C 51.171875 70.257812 50.875 70.46875 50.414062 70.46875 C 49.945312 70.46875 49.644531 70.238281 49.644531 69.914062 Z M 49.644531 69.917969 "/>
<path style=" stroke:none;fill-rule:nonzero;fill:rgb(100%,100%,100%);fill-opacity:1;" d="M 51.292969 69.917969 L 51.292969 69.882812 L 51.691406 69.882812 L 51.691406 69.914062 C 51.691406 70.0625 51.835938 70.15625 52.0625 70.15625 C 52.289062 70.15625 52.417969 70.070312 52.417969 69.9375 C 52.417969 69.574219 51.316406 69.8125 51.316406 69.132812 C 51.316406 68.785156 51.605469 68.59375 52.035156 68.59375 C 52.492188 68.59375 52.773438 68.808594 52.773438 69.113281 L 52.773438 69.144531 L 52.382812 69.144531 L 52.382812 69.121094 C 52.382812 68.988281 52.25 68.902344 52.042969 68.902344 C 51.835938 68.902344 51.722656 68.984375 51.722656 69.109375 C 51.722656 69.464844 52.820312 69.214844 52.820312 69.902344 C 52.820312 70.257812 52.523438 70.46875 52.0625 70.46875 C 51.59375 70.46875 51.292969 70.238281 51.292969 69.914062 Z M 51.292969 69.917969 "/>
<path style=" stroke:none;fill-rule:nonzero;fill:rgb(100%,100%,100%);fill-opacity:1;" d="M 53.023438 70.203125 C 53.023438 70.054688 53.132812 69.960938 53.289062 69.960938 C 53.445312 69.960938 53.554688 70.054688 53.554688 70.203125 C 53.554688 70.351562 53.449219 70.449219 53.289062 70.449219 C 53.132812 70.449219 53.023438 70.355469 53.023438 70.203125 Z M 53.023438 70.203125 "/>
<path style=" stroke:none;fill-rule:nonzero;fill:rgb(100%,100%,100%);fill-opacity:1;" d="M 55.378906 69.191406 L 55.378906 70.425781 L 55.015625 70.425781 L 55.015625 70.164062 L 54.984375 70.164062 C 54.90625 70.347656 54.699219 70.46875 54.417969 70.46875 C 54.023438 70.46875 53.769531 70.261719 53.769531 69.941406 C 53.769531 69.621094 54.023438 69.402344 54.414062 69.402344 L 54.996094 69.402344 L 54.996094 69.230469 C 54.996094 69.03125 54.847656 68.902344 54.597656 68.902344 C 54.382812 68.902344 54.21875 69 54.21875 69.144531 L 54.21875 69.183594 L 53.847656 69.183594 L 53.847656 69.128906 C 53.847656 68.800781 54.15625 68.589844 54.609375 68.589844 C 55.082031 68.589844 55.378906 68.832031 55.378906 69.191406 Z M 54.996094 69.871094 L 54.996094 69.683594 L 54.457031 69.683594 C 54.273438 69.683594 54.15625 69.777344 54.15625 69.917969 C 54.15625 70.070312 54.304688 70.167969 54.542969 70.167969 C 54.808594 70.167969 54.996094 70.046875 54.996094 69.871094 Z M 54.996094 69.871094 "/>
<path style=" stroke:none;fill-rule:nonzero;fill:rgb(100%,100%,100%);fill-opacity:1;" d="M 55.703125 68.109375 C 55.703125 67.980469 55.800781 67.894531 55.945312 67.894531 C 56.09375 67.894531 56.1875 67.980469 56.1875 68.109375 C 56.1875 68.238281 56.09375 68.328125 55.945312 68.328125 C 55.800781 68.328125 55.703125 68.238281 55.703125 68.109375 Z M 55.753906 68.632812 L 56.140625 68.632812 L 56.140625 70.425781 L 55.753906 70.425781 Z M 55.753906 68.632812 "/>
</g>
</svg>
