<?xml version="1.0" encoding="UTF-8"?> <svg xmlns="http://www.w3.org/2000/svg" id="b" viewBox="0 0 1009 1005"><path d="m721.52,109.92h-419.99c-140.32,0-254.48,114.15-254.48,254.48v540.53l226.94-169.62c7.95-5.94,17.61-9.15,27.53-9.15h419.99c140.32,0,254.48-114.16,254.48-254.48v-107.27c0-140.32-114.16-254.48-254.48-254.48Zm85.85,361.75c0,47.34-38.51,85.85-85.85,85.85h-419.99c-47.34,0-85.85-38.51-85.85-85.85v-107.27c0-47.34,38.51-85.85,85.85-85.85h419.99c47.34,0,85.85,38.51,85.85,85.85v107.27Z" style="fill:#7031f5;"></path><path d="m721.52,186.57h-419.99c-98.06,0-177.83,79.77-177.83,177.83v107.27c0,98.06,79.77,177.83,177.83,177.83h419.99c98.06,0,177.83-79.77,177.83-177.83v-107.27c0-98.06-79.77-177.83-177.83-177.83Zm85.85,285.1c0,47.34-38.51,85.85-85.85,85.85h-419.99c-47.34,0-85.85-38.51-85.85-85.85v-107.27c0-47.34,38.51-85.85,85.85-85.85h419.99c47.34,0,85.85,38.51,85.85,85.85v107.27Z" style="fill:#7031f5;"></path><circle cx="354.89" cy="418.04" r="56.72" style="fill:#7031f5;"></circle><circle cx="668.16" cy="418.04" r="56.72" style="fill:#7031f5;"></circle></svg>