<?xml version="1.0" encoding="UTF-8"?><svg xmlns="http://www.w3.org/2000/svg" width="1009" height="1005" viewBox="0 0 1009 1005"><g id="b"><path d="m977,507.07c0,261.75-212.19,473.93-473.93,473.93S29.14,768.81,29.14,507.07,241.32,33.14,503.07,33.14h0c261.75,0,473.93,212.19,473.93,473.93Z" style="fill:#d5cdff;"/></g><g id="c"><path d="m689.67,182.92h-333.92c-111.56,0-202.33,90.76-202.33,202.33v429.75l180.43-134.86c6.32-4.72,14-7.27,21.89-7.27h333.92c111.56,0,202.33-90.76,202.33-202.33v-85.29c0-111.57-90.76-202.33-202.33-202.33Z" style="fill:#7031f5;"/></g><g id="d"><path d="m543.64,480.74h-73.58l-13.22,41.01h-32.48l62.08-178.43h42.25l62.08,178.43h-33.63l-13.51-41.01Zm-8.05-25.3l-27.59-83.89h-2.3l-27.31,83.89h57.2Z" style="fill:#fff;"/><path d="m752.89,403.77c0,36.48-25.29,60.19-64.1,60.19h-44.26v57.79h-30.47v-178.43h74.73c38.8,0,64.1,23.97,64.1,60.45Zm-30.18,0c0-21.04-14.08-34.35-36.22-34.35h-41.96v68.71h41.96c22.13,0,36.22-13.32,36.22-34.35Z" style="fill:#fff;"/><path d="m778.48,343.32h30.47v178.43h-30.47v-178.43Z" style="fill:#fff;"/></g><g id="e"><circle cx="293.5" cy="431.5" r="34.37" style="fill:#0a2540;"/><path d="m419.54,420.04v22.92c0,6.3-5.16,11.46-11.46,11.46h-25.9c-2.18,8.36-5.5,16.27-9.74,23.6l18.33,18.33c4.47,4.47,4.47,11.69,0,16.16l-16.27,16.27c-4.47,4.47-11.69,4.47-16.16,0l-18.33-18.33c-7.33,4.24-15.24,7.56-23.6,9.74v25.9c0,6.3-5.16,11.46-11.46,11.46h-22.92c-6.3,0-11.46-5.16-11.46-11.46v-25.9c-8.36-2.18-16.27-5.5-23.6-9.74l-18.33,18.33c-4.47,4.47-11.69,4.47-16.16,0l-16.27-16.27c-4.47-4.47-4.47-11.69,0-16.16l18.33-18.33c-4.24-7.33-7.56-15.24-9.74-23.6h-25.9c-6.3,0-11.46-5.16-11.46-11.46v-22.92c0-6.3,5.16-11.46,11.46-11.46h25.9c2.18-8.36,5.5-16.27,9.74-23.6l-18.33-18.33c-4.47-4.47-4.47-11.69,0-16.16l16.27-16.27c4.47-4.47,11.69-4.47,16.16,0l18.33,18.33c7.33-4.24,15.24-7.56,23.6-9.74v-25.9c0-6.3,5.16-11.46,11.46-11.46h22.92c6.3,0,11.46,5.16,11.46,11.46v25.9c8.36,2.18,16.27,5.5,23.6,9.74l18.33-18.33c4.47-4.47,11.69-4.47,16.16,0l16.27,16.27c4.47,4.47,4.47,11.69,0,16.16l-18.33,18.33c4.24,7.33,7.56,15.24,9.74,23.6h25.9c6.3,0,11.46,5.16,11.46,11.46Zm-91.67,11.46c0-19.02-15.35-34.37-34.37-34.37s-34.37,15.35-34.37,34.37,15.35,34.37,34.37,34.37,34.37-15.35,34.37-34.37Z" style="fill:#d5cdff;"/><path d="m178.92,397.13c-12.64,0-22.92,10.28-22.92,22.92v22.92c0,12.63,10.28,22.92,22.92,22.92h17.44c1.2,3.38,2.58,6.72,4.13,9.99l-12.38,12.39c-8.91,8.91-8.92,23.42,0,32.36l16.28,16.27c8.92,8.93,23.44,8.93,32.35,0l12.38-12.39c3.27,1.56,6.61,2.94,10,4.14v17.44c0,12.63,10.28,22.92,22.92,22.92h22.92c12.64,0,22.92-10.28,22.92-22.92v-17.44c3.38-1.2,6.72-2.58,10-4.14l12.38,12.39c8.91,8.93,23.43,8.93,32.35,0l16.29-16.28c8.91-8.93,8.9-23.44-.01-32.35l-12.38-12.39c1.55-3.27,2.93-6.61,4.13-9.99h17.44c12.64,0,22.92-10.28,22.92-22.92v-22.92c0-12.63-10.28-22.92-22.92-22.92h-17.44c-1.2-3.38-2.58-6.72-4.13-9.99l12.38-12.39c8.91-8.91,8.92-23.42,0-32.36l-16.28-16.27c-8.92-8.94-23.44-8.92-32.35,0l-12.38,12.39c-3.27-1.56-6.61-2.94-10-4.14v-17.44c0-12.63-10.28-22.92-22.92-22.92h-22.92c-12.64,0-22.92,10.28-22.92,22.92v17.44c-3.38,1.2-6.72,2.58-10,4.14l-12.38-12.39c-8.92-8.92-23.44-8.94-32.35,0l-16.29,16.28c-8.91,8.93-8.9,23.44.01,32.35l12.38,12.39c-1.55,3.27-2.93,6.61-4.13,9.99h-17.44Zm43.73-20.24l-18.33-18.3,16.22-16.27,18.33,18.34c3.66,3.67,9.34,4.42,13.84,1.81,6.61-3.82,13.6-6.7,20.76-8.57,5.05-1.32,8.57-5.87,8.57-11.09v-25.89h22.92v25.89c0,5.21,3.52,9.77,8.57,11.09,7.16,1.87,14.15,4.76,20.76,8.57,4.5,2.61,10.18,1.86,13.84-1.81l18.28-18.34,16.28,16.22-18.33,18.34c-3.67,3.67-4.41,9.34-1.82,13.83,3.82,6.62,6.71,13.61,8.57,20.76,1.31,5.05,5.87,8.57,11.09,8.57h25.89v22.92h-25.89c-5.21,0-9.77,3.52-11.09,8.57-1.86,7.15-4.75,14.13-8.57,20.76-2.6,4.49-1.85,10.16,1.82,13.83l18.33,18.3-16.22,16.27-18.33-18.34c-3.66-3.66-9.34-4.41-13.84-1.81-6.61,3.82-13.6,6.7-20.76,8.57-5.05,1.32-8.57,5.87-8.57,11.09v25.89h-22.92v-25.89c0-5.21-3.52-9.77-8.57-11.09-7.16-1.87-14.15-4.76-20.76-8.57-1.79-1.04-3.77-1.54-5.73-1.54-2.97,0-5.9,1.15-8.11,3.36l-18.28,18.34-16.28-16.22,18.33-18.34c3.67-3.67,4.41-9.34,1.82-13.83-3.82-6.62-6.71-13.61-8.57-20.76-1.31-5.05-5.87-8.57-11.09-8.57h-25.89v-22.92h25.89c5.21,0,9.77-3.52,11.09-8.57,1.86-7.15,4.75-14.13,8.57-20.76,2.6-4.49,1.85-10.16-1.82-13.83Z" style="fill:#7031f5;"/></g></svg>