<?xml version="1.0" encoding="UTF-8"?><svg xmlns="http://www.w3.org/2000/svg" viewBox="0 0 975 971.13"><g id="b"><rect width="975" height="971.13" rx="144.95" ry="144.95" style="fill:#7031f5;"/></g><g id="c"><path d="m663.16,155.04h-349.65c-116.82,0-211.84,95.03-211.84,211.84v450l188.91-141.19c6.62-4.93,14.68-7.61,22.94-7.61h349.65c116.82,0,211.84-95.03,211.84-211.84v-89.3c0-116.82-95.03-211.84-211.84-211.84v-.05Zm71.44,301.15c0,39.4-32.04,71.44-71.44,71.44h-349.65c-39.4,0-71.44-32.04-71.44-71.44v-89.3c0-39.4,32.04-71.44,71.44-71.44h349.65c39.4,0,71.44,32.04,71.44,71.44v89.3Z" style="fill:#fff;"/><circle cx="357.93" cy="411.51" r="47.21" style="fill:#fff;"/><circle cx="618.73" cy="411.51" r="47.21" style="fill:#fff;"/></g></svg>