<?xml version="1.0" encoding="UTF-8"?><svg xmlns="http://www.w3.org/2000/svg" width="500" height="250" viewBox="0 0 1000 500"><g id="b"><rect width="1000" height="500" style="fill:#f0fdfa;"/></g><g id="d"><g id="e"><g id="f"><rect x="314.45" y="145.46" width="380.72" height="10.63" style="fill:#0d9488;"/><rect x="347.08" y="120.84" width="36.62" height="10.63" style="fill:#0d9488;"/><rect x="399.28" y="120.84" width="36.62" height="10.63" style="fill:#0d9488;"/><path d="m686.02,93.87h-361.47c-8.27,0-14.98,6.71-14.98,14.98v300.65c0,8.27,6.71,14.98,14.98,14.98h361.47c8.27,0,14.98-6.71,14.98-14.98V108.86c0-8.27-6.71-14.98-14.98-14.98Zm4.35,315.63c0,2.4-1.95,4.34-4.35,4.35h-361.47c-2.4,0-4.34-1.95-4.35-4.35V108.86c0-2.4,1.95-4.34,4.35-4.35h361.47c2.4,0,4.34,1.95,4.35,4.35v300.65Z" style="fill:#0d9488;"/></g></g></g><g id="g"><g id="h"><g id="i"><path d="m415.78,335.63c-.56,0-1.12-.09-1.66-.26-2.14-.65-3.6-2.63-3.59-4.87v-22.75h-2.34c-8.27,0-15-6.43-15-14.34v-44.23c0-7.91,6.73-14.37,15-14.37h37.34v5.64h-37.34c-5.13,0-9.35,3.9-9.35,8.72v44.23c0,4.79,4.2,8.7,9.35,8.7h2.7c2.87-.03,5.22,2.26,5.26,5.13v21.98l17.69-24.9c1-1.39,2.61-2.21,4.32-2.21h22.57c5.13,0,9.35-3.9,9.35-8.7v-31.24h5.64v31.23c0,7.91-6.73,14.34-15,14.34h-22.41l-18.24,25.65c-.99,1.4-2.59,2.23-4.3,2.23Z" style="fill:#0d9488;"/><path d="m436.49,284.27h-5.64c0-.83,0-1.62-.04-2.38-.12-4.1-.24-8,3.77-12,.46-.47.91-.91,1.33-1.33,4.05-4.02,5.69-5.74,5.69-7.9,0-4.56-3.19-7.74-7.74-7.74s-8.21,3.68-8.21,8.21h-5.64c0-7.65,6.2-13.85,13.85-13.85s13.38,5.64,13.38,13.38c0,4.62-2.93,7.51-7.36,11.9l-1.32,1.31c-2.28,2.28-2.23,4.15-2.12,7.85.03.81.05,1.63.05,2.54Z" style="fill:#0d9488;"/><rect x="430.83" y="289.06" width="5.64" height="7.06" style="fill:#0d9488;"/><path d="m581.44,389h-91.87c-5.81,0-10.51-4.71-10.52-10.52v-65.78c0-5.81,4.71-10.51,10.52-10.52h91.87c5.81,0,10.51,4.71,10.52,10.52v65.76c0,5.81-4.71,10.53-10.52,10.53Zm-91.87-81.17c-2.69,0-4.87,2.18-4.87,4.87v65.76c0,2.69,2.18,4.87,4.87,4.87h91.87c2.69,0,4.87-2.18,4.87-4.87v-65.76c0-2.69-2.18-4.87-4.87-4.87h-91.87Z" style="fill:#0d9488;"/><path d="m481.87,368.57h-9.06c-4.24-.01-7.68-3.45-7.7-7.7v-22.46c.01-4.24,3.45-7.68,7.7-7.7h9.06v5.64h-9.06c-1.13,0-2.05.92-2.05,2.05v22.44c0,1.13.92,2.05,2.05,2.05h9.06v5.66Z" style="fill:#0d9488;"/><path d="m598.4,368.57h-9.27v-5.64h9.27c1.13,0,2.05-.92,2.05-2.05v-22.46c0-1.13-.92-2.05-2.05-2.05h-9.27v-5.64h9.27c4.24.01,7.68,3.45,7.7,7.7v22.44c0,4.25-3.44,7.7-7.7,7.72Z" style="fill:#0d9488;"/><rect x="532.78" y="284.61" width="5.64" height="18.52" style="fill:#0d9488;"/><path d="m535.61,293.33c-7.37,0-13.34-5.97-13.34-13.34s5.97-13.34,13.34-13.34,13.34,5.97,13.34,13.34h0c0,7.37-5.97,13.34-13.34,13.34Zm0-21.03c-4.25,0-7.7,3.45-7.7,7.7s3.45,7.7,7.7,7.7,7.7-3.45,7.7-7.7-3.45-7.7-7.7-7.7h0Z" style="fill:#0d9488;"/><path d="m563.37,352.41h-55.53c-8.39.15-15.31-6.52-15.47-14.91-.15-8.39,6.52-15.31,14.91-15.47.19,0,.37,0,.56,0h55.53c8.39-.15,15.31,6.52,15.47,14.91.15,8.39-6.52,15.31-14.91,15.47-.19,0-.37,0-.56,0Zm-55.53-24.73c-5.27-.12-9.64,4.05-9.77,9.32-.12,5.27,4.05,9.64,9.32,9.77.15,0,.3,0,.44,0h55.53c5.27.12,9.64-4.05,9.77-9.32.12-5.27-4.05-9.64-9.32-9.77-.15,0-.3,0-.44,0h-55.53Z" style="fill:#0d9488;"/><path d="m535.73,373.11c-10.15.02-20.07-3.06-28.42-8.83l3.21-4.65c15.19,10.45,35.25,10.45,50.44,0l3.2,4.65c-8.35,5.77-18.27,8.85-28.42,8.83Z" style="fill:#0d9488;"/><rect x="472.02" y="202.49" width="63.36" height="5.64" style="fill:#0d9488;"/><rect x="472.02" y="216.61" width="86.47" height="5.64" style="fill:#0d9488;"/><rect x="472.02" y="230.75" width="86.47" height="5.64" style="fill:#0d9488;"/><path d="m508.35,287.52c-1.56-.01-3.04-.71-4.04-1.91l-25.54-29.76h-12.17c-8.64,0-15.64-7.01-15.65-15.65v-41.56c0-8.64,7.01-15.64,15.65-15.65h97.99c8.64,0,15.64,7.01,15.65,15.65v41.56c0,8.64-7.01,15.64-15.65,15.65h-50.83v26.27c.01,2.26-1.4,4.28-3.52,5.05-.61.23-1.25.34-1.89.34Zm-41.75-98.87c-5.52,0-10,4.48-10,10v41.56c0,5.52,4.48,10,10,10h12.27c1.58,0,3.08.68,4.1,1.88l25.16,29.34v-25.84c0-2.97,2.41-5.38,5.39-5.39h51.07c5.52,0,10-4.48,10-10v-41.56c0-5.52-4.48-10-10-10h-97.99Z" style="fill:#0d9488;"/></g></g></g><g id="j"><path d="m603.33,123.02c0,3.59-2.49,5.92-6.3,5.92h-4.35v5.68h-2.99v-17.54h7.34c3.81,0,6.3,2.35,6.3,5.94Zm-2.97,0c0-2.07-1.38-3.38-3.56-3.38h-4.12v6.75h4.12c2.17,0,3.56-1.31,3.56-3.38Z" style="fill:#0d9488;"/><path d="m612.94,121.21v2.67h-.62c-2.57,0-4.07,1.57-4.07,3.43v7.3h-2.83v-13.09h2.83v2.36h.17c.57-1.67,2.01-2.67,4.01-2.67h.51Z" style="fill:#0d9488;"/><path d="m616.52,129.06v.94c0,1.6,1.24,2.64,3.16,2.64,1.78,0,2.99-.76,2.99-1.94v-.06h2.82v.08c0,2.51-2.34,4.19-5.82,4.19s-5.99-1.99-5.99-5v-3.71c0-3.01,2.34-5,5.9-5s5.9,1.99,5.9,5v2.85h-8.98Zm0-2.96v.81h6.16v-.81c0-1.6-1.22-2.62-3.08-2.62-1.83,0-3.08,1.02-3.08,2.62Z" style="fill:#0d9488;"/><path d="m626.98,130.9v-.26h2.91v.24c0,1.07,1.07,1.78,2.74,1.78s2.6-.63,2.6-1.6c0-2.67-8.08-.92-8.08-5.89,0-2.54,2.12-3.95,5.28-3.95,3.33,0,5.42,1.57,5.42,3.8v.23h-2.88v-.15c0-.97-.96-1.6-2.49-1.6s-2.37.58-2.37,1.49c0,2.62,8.08.79,8.08,5.81,0,2.59-2.18,4.14-5.57,4.14-3.45,0-5.65-1.68-5.65-4.03Z" style="fill:#0d9488;"/><path d="m639.1,130.9v-.26h2.91v.24c0,1.07,1.07,1.78,2.74,1.78s2.6-.63,2.6-1.6c0-2.67-8.08-.92-8.08-5.89,0-2.54,2.12-3.95,5.28-3.95,3.33,0,5.42,1.57,5.42,3.8v.23h-2.88v-.15c0-.97-.96-1.6-2.49-1.6s-2.37.58-2.37,1.49c0,2.62,8.08.79,8.08,5.81,0,2.59-2.18,4.14-5.57,4.14-3.45,0-5.65-1.68-5.65-4.03Z" style="fill:#0d9488;"/><path d="m651.81,132.99c0-1.07.79-1.78,1.95-1.78s1.95.71,1.95,1.78-.76,1.81-1.95,1.81c-1.16,0-1.95-.71-1.95-1.81Z" style="fill:#0d9488;"/><path d="m669.13,125.61v9h-2.68v-1.91h-.23c-.59,1.36-2.12,2.22-4.18,2.22-2.88,0-4.75-1.52-4.75-3.85s1.86-3.93,4.72-3.93h4.29v-1.26c0-1.47-1.1-2.41-2.94-2.41-1.58,0-2.77.71-2.77,1.78v.29h-2.74v-.42c0-2.38,2.26-3.93,5.59-3.93,3.47,0,5.68,1.76,5.68,4.4Zm-2.83,4.95v-1.36h-3.95c-1.36,0-2.2.68-2.2,1.7,0,1.13,1.07,1.83,2.83,1.83,1.98,0,3.33-.89,3.33-2.17Z" style="fill:#0d9488;"/><path d="m671.5,117.68c0-.94.71-1.57,1.78-1.57s1.78.63,1.78,1.57-.71,1.62-1.78,1.62-1.78-.65-1.78-1.62Zm.37,3.85h2.83v13.09h-2.83v-13.09Z" style="fill:#0d9488;"/></g></svg>