<?xml version="1.0" encoding="UTF-8"?><svg xmlns="http://www.w3.org/2000/svg" width="500" height="250" viewBox="0 0 1000 500"><g id="b"><rect width="1000" height="500" style="fill:#e4f6ff;"/></g><g id="d"><g id="e"><g id="f"><rect x="303.45" y="143.46" width="380.72" height="10.63" style="fill:#096bde;"/><rect x="336.08" y="118.84" width="36.62" height="10.63" style="fill:#096bde;"/><rect x="388.28" y="118.84" width="36.62" height="10.63" style="fill:#096bde;"/><path d="m675.02,91.87h-361.47c-8.27,0-14.98,6.71-14.98,14.98v300.65c0,8.27,6.71,14.98,14.98,14.98h361.47c8.27,0,14.98-6.71,14.98-14.98V106.86c0-8.27-6.71-14.98-14.98-14.98Zm4.35,315.63c0,2.4-1.95,4.34-4.35,4.35h-361.47c-2.4,0-4.34-1.95-4.35-4.35V106.86c0-2.4,1.95-4.34,4.35-4.35h361.47c2.4,0,4.34,1.95,4.35,4.35v300.65Z" style="fill:#096bde;"/></g></g></g><g id="g"><g id="h"><g id="i"><path d="m554.47,248.21h-5.72v-28.93h-28.93v-5.72h29.9c2.61,0,4.73,2.12,4.74,4.73v29.91Z" style="fill:#096bde;"/><path d="m549.73,308.23h-29.9v-5.72h28.93v-28.92h5.72v29.9c0,2.61-2.13,4.73-4.74,4.73Z" style="fill:#096bde;"/><path d="m440.43,248.21h-5.72v-29.91c0-2.61,2.12-4.73,4.74-4.73h29.91v5.72h-28.93v28.93Z" style="fill:#096bde;"/><path d="m469.36,308.23h-29.91c-2.62,0-4.74-2.12-4.74-4.74v-29.89h5.72v28.92h28.93v5.72Z" style="fill:#096bde;"/><path d="m515.94,291.38c-2.54.02-4.7-1.85-5.04-4.37l-6.53-45.4-4.96,33.37c-.34,2.49-2.46,4.35-4.97,4.35h-.07c-2.49.03-4.62-1.76-5.01-4.22l-3.4-19.43-5.42,25.64c-.58,2.75-3.29,4.51-6.04,3.92-2.09-.44-3.69-2.15-3.99-4.27l-5.46-38.86-3.46,17.67c-.48,2.39-2.57,4.11-5,4.11h-30.51v-5.72h30.03l4.07-20.78c.53-2.76,3.2-4.57,5.97-4.03,2.14.41,3.78,2.14,4.08,4.3l5.48,39.02,5.34-25.33c.57-2.75,3.27-4.52,6.02-3.95,2.04.43,3.62,2.06,3.98,4.12l3.29,18.83,5.02-33.77c.33-2.52,2.5-4.38,5.04-4.34h0c2.54-.04,4.71,1.84,5.03,4.36l6.48,45.09,4.51-35.22c.36-2.79,2.9-4.76,5.69-4.41,2.21.28,3.98,1.97,4.37,4.16l2.11,11.89h30.5v5.72h-31.02c-2.47,0-4.58-1.77-5.01-4.2l-1.5-8.4-4.58,35.7c-.3,2.54-2.46,4.45-5.01,4.45h-.04Z" style="fill:#096bde;"/><path d="m589.14,337.27h-188.31v-133.67c.01-9.29,7.54-16.83,16.84-16.84h154.61c9.3,0,16.85,7.54,16.86,16.84v133.67Zm-182.57-5.72h176.86v-127.95c0-6.14-4.98-11.12-11.12-11.12h-154.63c-6.14,0-11.11,4.99-11.12,11.12l.02,127.95Z" style="fill:#096bde;"/><path d="m565.37,322.39h-140.79c-6.21,0-11.24-5.04-11.25-11.24v-101.2c0-6.21,5.04-11.24,11.25-11.25h140.81c6.21,0,11.24,5.04,11.25,11.25v101.2c0,6.22-5.05,11.25-11.27,11.24Zm-140.79-117.98c-3.05,0-5.53,2.48-5.53,5.53v101.2c0,3.05,2.48,5.53,5.53,5.53h140.81c3.05,0,5.53-2.48,5.53-5.53v-101.2c0-3.05-2.48-5.53-5.53-5.53h-140.81Z" style="fill:#096bde;"/><path d="m585.16,376.3h-180.37c-9.47,0-16.84-10.54-16.84-19.62-.01-2.35,1.89-4.27,4.24-4.28,0,0,.01,0,.02,0v5.72c.8,0,1.46-.65,1.46-1.45,0,6.26,5.13,13.92,11.12,13.92h180.37c5.99,0,11.12-7.66,11.12-13.92,0,.8.66,1.45,1.46,1.45v-5.72c2.35,0,4.26,1.91,4.26,4.26,0,9.1-7.36,19.64-16.84,19.64Z" style="fill:#096bde;"/><path d="m521.02,363.31h-52.1c-2.48,0-4.66-1.6-5.39-3.97l-.24-.77h-70.49c-2.35,0-4.26-1.9-4.26-4.25,0-.52.09-1.03.28-1.51l.09-.24.13-.22,12.47-20.78h186.92l12.61,20.98.09.24c.84,2.2-.27,4.65-2.47,5.49-.48.18-1,.28-1.51.28h-70.49l-.24.77c-.72,2.37-2.92,4-5.4,3.99Zm-52.05-5.72h52.01l.24-.77c.73-2.37,2.92-3.98,5.39-3.97h67.93l-9.35-15.56h-180.45l-9.35,15.56h67.93c2.48,0,4.67,1.6,5.4,3.97l.24.77Z" style="fill:#096bde;"/></g></g></g><g id="j"><path d="m595.9,118.91c0,3.59-2.49,5.92-6.3,5.92h-4.35v5.68h-2.99v-17.54h7.34c3.81,0,6.3,2.35,6.3,5.94Zm-2.97,0c0-2.07-1.38-3.38-3.56-3.38h-4.12v6.75h4.12c2.17,0,3.56-1.31,3.56-3.38Z" style="fill:#096bde;"/><path d="m605.5,117.1v2.67h-.62c-2.57,0-4.07,1.57-4.07,3.43v7.3h-2.83v-13.09h2.83v2.36h.17c.57-1.67,2.01-2.67,4.01-2.67h.51Z" style="fill:#096bde;"/><path d="m609.09,124.96v.94c0,1.6,1.24,2.64,3.16,2.64,1.78,0,2.99-.76,2.99-1.94v-.06h2.82v.08c0,2.51-2.34,4.19-5.82,4.19s-5.99-1.99-5.99-5v-3.71c0-3.01,2.34-5,5.9-5s5.9,1.99,5.9,5v2.85h-8.98Zm0-2.96v.81h6.16v-.81c0-1.6-1.22-2.62-3.08-2.62-1.83,0-3.08,1.02-3.08,2.62Z" style="fill:#096bde;"/><path d="m619.54,126.79v-.26h2.91v.24c0,1.07,1.07,1.78,2.74,1.78s2.6-.63,2.6-1.6c0-2.67-8.08-.92-8.08-5.89,0-2.54,2.12-3.95,5.28-3.95,3.33,0,5.42,1.57,5.42,3.8v.23h-2.88v-.15c0-.97-.96-1.6-2.49-1.6s-2.37.58-2.37,1.49c0,2.62,8.08.79,8.08,5.81,0,2.59-2.18,4.14-5.57,4.14-3.45,0-5.65-1.68-5.65-4.03Z" style="fill:#096bde;"/><path d="m631.66,126.79v-.26h2.91v.24c0,1.07,1.07,1.78,2.74,1.78s2.6-.63,2.6-1.6c0-2.67-8.08-.92-8.08-5.89,0-2.54,2.12-3.95,5.28-3.95,3.33,0,5.42,1.57,5.42,3.8v.23h-2.88v-.15c0-.97-.96-1.6-2.49-1.6s-2.37.58-2.37,1.49c0,2.62,8.08.79,8.08,5.81,0,2.59-2.18,4.14-5.57,4.14-3.45,0-5.65-1.68-5.65-4.03Z" style="fill:#096bde;"/><path d="m644.37,128.88c0-1.07.79-1.78,1.95-1.78s1.95.71,1.95,1.78-.76,1.81-1.95,1.81c-1.16,0-1.95-.71-1.95-1.81Z" style="fill:#096bde;"/><path d="m661.69,121.5v9h-2.68v-1.91h-.23c-.59,1.36-2.12,2.22-4.18,2.22-2.88,0-4.75-1.52-4.75-3.85s1.86-3.93,4.72-3.93h4.29v-1.26c0-1.47-1.1-2.41-2.94-2.41-1.58,0-2.77.71-2.77,1.78v.29h-2.74v-.42c0-2.38,2.26-3.93,5.59-3.93,3.47,0,5.68,1.76,5.68,4.4Zm-2.83,4.95v-1.36h-3.95c-1.36,0-2.2.68-2.2,1.7,0,1.13,1.07,1.83,2.83,1.83,1.98,0,3.33-.89,3.33-2.17Z" style="fill:#096bde;"/><path d="m664.06,113.57c0-.94.71-1.57,1.78-1.57s1.78.63,1.78,1.57-.71,1.62-1.78,1.62-1.78-.65-1.78-1.62Zm.37,3.85h2.83v13.09h-2.83v-13.09Z" style="fill:#096bde;"/></g></svg>