<?xml version="1.0" encoding="UTF-8"?><svg xmlns="http://www.w3.org/2000/svg" width="500" height="250" viewBox="0 0 1000 500"><g id="b"><rect width="1000" height="500" style="fill:#fffbeb;"/></g><g id="d"><g id="e"><g id="f"><rect x="303.45" y="143.46" width="380.72" height="10.63" style="fill:#f59e0b;"/><rect x="336.08" y="118.84" width="36.62" height="10.63" style="fill:#f59e0b;"/><rect x="388.28" y="118.84" width="36.62" height="10.63" style="fill:#f59e0b;"/><path d="m675.02,91.87h-361.47c-8.27,0-14.98,6.71-14.98,14.98v300.65c0,8.27,6.71,14.98,14.98,14.98h361.47c8.27,0,14.98-6.71,14.98-14.98V106.86c0-8.27-6.71-14.98-14.98-14.98Zm4.35,315.63c0,2.4-1.95,4.34-4.35,4.35h-361.47c-2.4,0-4.34-1.95-4.35-4.35V106.86c0-2.4,1.95-4.34,4.35-4.35h361.47c2.4,0,4.34,1.95,4.35,4.35v300.65Z" style="fill:#f59e0b;"/></g></g></g><g id="g"><g id="h"><g id="i"><path d="m614.68,394h-235.73c-3.52,0-6.37-2.85-6.37-6.37v-184.98c0-3.52,2.85-6.37,6.37-6.37h11.54v6.8h-11.13v184.13h235.08v-184.13h-11.86v-6.8h12.29c3.52,0,6.37,2.85,6.37,6.37v184.8c-.01,3.62-2.94,6.55-6.56,6.55Z" style="fill:#f59e0b;"/><path d="m599.43,374.97h-205.1c-4-.02-7.23-3.27-7.23-7.27v-22.8h86.39c9.55.02,18.34,5.19,23,13.52,4.6-8.35,13.33-13.59,22.87-13.71l33.12-.28,46.7-.21v-20.58h6.8v44.77c0,3.62-2.93,6.55-6.55,6.56Zm-99.23-6.8h98.99v-17.15l-46.65.21-33.11.28c-9.61.15-17.72,7.18-19.23,16.66h0Zm-106.31-16.47v16c-.01.25.18.46.43.47,0,0,0,0,0,0h98.53c-1.6-9.46-9.77-16.41-19.36-16.47h-79.6Z" style="fill:#f59e0b;"/><rect x="493.15" y="322.09" width="6.8" height="28.34" style="fill:#f59e0b;"/><path d="m393.9,346.06h-6.8v-155.95c0-4.01,3.26-7.26,7.27-7.27h78.95c15.18,0,26.63,10.9,26.63,25.34v6.49h-6.8v-6.49c0-10.58-8.52-18.54-19.83-18.54h-78.95c-.26,0-.47.21-.47.47h0s0,155.95,0,155.95Z" style="fill:#f59e0b;"/><path d="m499.95,358.62h-6.8v-150.42c0-14.46,11.44-25.34,26.61-25.34h78.96c4.01,0,7.27,3.26,7.27,7.27v133.5h-6.8v-133.5c0-.26-.21-.47-.47-.47h-78.96c-11.3,0-19.82,7.98-19.82,18.54v150.42Z" style="fill:#f59e0b;"/><rect x="472.08" y="220.14" width="25.54" height="6.8" style="fill:#f59e0b;"/><path d="m458.68,238.62c-8.19,0-14.83-6.64-14.83-14.83s6.64-14.83,14.83-14.83,14.83,6.64,14.83,14.83-6.64,14.83-14.83,14.83Zm0-22.87c-4.44,0-8.03,3.6-8.03,8.03s3.6,8.03,8.03,8.03,8.03-3.6,8.03-8.03c.01-4.44-3.58-8.04-8.02-8.05,0,0-.01,0-.02,0v.02Z" style="fill:#f59e0b;"/><rect x="439.95" y="309.91" width="57.91" height="6.8" style="fill:#f59e0b;"/><path d="m428.54,327.93c-8.19,0-14.83-6.64-14.83-14.83s6.64-14.83,14.83-14.83,14.83,6.64,14.83,14.83-6.64,14.83-14.83,14.83Zm0-22.87c-4.44,0-8.03,3.6-8.03,8.03s3.6,8.03,8.03,8.03,8.03-3.6,8.03-8.03c.01-4.44-3.58-8.04-8.02-8.05,0,0-.01,0-.02,0v.02Z" style="fill:#f59e0b;"/><rect x="472.32" y="283.67" width="25.77" height="6.8" style="fill:#f59e0b;"/><path d="m484.17,287.07h-6.8v-32.06c0-1.49-1.2-2.69-2.69-2.69h-36.47v-6.8h36.47c5.24,0,9.48,4.25,9.49,9.49v32.06Z" style="fill:#f59e0b;"/><path d="m425.75,263.74c-8.19,0-14.83-6.64-14.83-14.83s6.64-14.83,14.83-14.83,14.83,6.64,14.83,14.83-6.64,14.83-14.83,14.83Zm0-22.87c-4.44,0-8.03,3.6-8.03,8.03s3.6,8.03,8.03,8.03,8.03-3.6,8.03-8.03h0c.01-4.44-3.58-8.04-8.02-8.05,0,0-.01,0-.02,0v.02Z" style="fill:#f59e0b;"/><path d="m459.24,301.69c-8.19,0-14.83-6.64-14.83-14.83s6.64-14.83,14.83-14.83,14.83,6.64,14.83,14.83-6.64,14.83-14.83,14.83h0Zm0-22.87c-4.44,0-8.03,3.6-8.03,8.03s3.6,8.03,8.03,8.03,8.03-3.6,8.03-8.03h0c.01-4.44-3.58-8.04-8.02-8.05,0,0-.01,0-.02,0v.02Z" style="fill:#f59e0b;"/><rect x="496.64" y="309.92" width="25.54" height="6.8" style="fill:#f59e0b;"/><path d="m535.58,327.93c-8.19,0-14.83-6.64-14.83-14.83s6.64-14.83,14.83-14.83,14.83,6.64,14.83,14.83-6.64,14.83-14.83,14.83Zm0-22.87c-4.44,0-8.03,3.6-8.03,8.03s3.6,8.03,8.03,8.03,8.03-3.6,8.03-8.03c.01-4.44-3.58-8.04-8.02-8.05,0,0-.01,0-.02,0v.02Z" style="fill:#f59e0b;"/><rect x="496.39" y="220.16" width="57.91" height="6.8" style="fill:#f59e0b;"/><path d="m565.72,238.62c-8.19,0-14.83-6.64-14.83-14.83s6.64-14.83,14.83-14.83,14.83,6.64,14.83,14.83-6.64,14.83-14.83,14.83Zm0-22.87c-4.44,0-8.03,3.6-8.03,8.03s3.6,8.03,8.03,8.03,8.03-3.6,8.03-8.03c.01-4.44-3.58-8.04-8.02-8.05,0,0-.01,0-.02,0v.02Z" style="fill:#f59e0b;"/><rect x="496.16" y="246.39" width="25.77" height="6.8" style="fill:#f59e0b;"/><path d="m556.04,291.34h-36.47c-5.24,0-9.48-4.25-9.49-9.49v-32.06h6.8v32.06c0,1.49,1.2,2.69,2.69,2.69h36.47v6.8Z" style="fill:#f59e0b;"/><path d="m568.51,302.81c-8.19,0-14.83-6.64-14.83-14.83s6.64-14.83,14.83-14.83,14.83,6.64,14.83,14.83-6.64,14.83-14.83,14.83Zm0-22.87c-4.44,0-8.03,3.6-8.03,8.03s3.6,8.03,8.03,8.03,8.03-3.6,8.03-8.03h0c.01-4.44-3.58-8.04-8.02-8.05,0,0-.01,0-.02,0v.02Z" style="fill:#f59e0b;"/><path d="m535.03,264.85c-8.19,0-14.83-6.64-14.83-14.83s6.64-14.83,14.83-14.83,14.83,6.64,14.83,14.83-6.64,14.83-14.83,14.83Zm0-22.87c-4.44,0-8.03,3.6-8.03,8.03s3.6,8.03,8.03,8.03,8.03-3.6,8.03-8.03h0c.02-4.44-3.57-8.05-8-8.07-.01,0-.02,0-.03,0v.03Z" style="fill:#f59e0b;"/></g></g></g><g id="j"><path d="m595.9,118.91c0,3.59-2.49,5.92-6.3,5.92h-4.35v5.68h-2.99v-17.54h7.34c3.81,0,6.3,2.35,6.3,5.94Zm-2.97,0c0-2.07-1.38-3.38-3.56-3.38h-4.12v6.75h4.12c2.17,0,3.56-1.31,3.56-3.38Z" style="fill:#f59e0b;"/><path d="m605.5,117.1v2.67h-.62c-2.57,0-4.07,1.57-4.07,3.43v7.3h-2.83v-13.09h2.83v2.36h.17c.57-1.67,2.01-2.67,4.01-2.67h.51Z" style="fill:#f59e0b;"/><path d="m609.09,124.96v.94c0,1.6,1.24,2.64,3.16,2.64,1.78,0,2.99-.76,2.99-1.94v-.06h2.82v.08c0,2.51-2.34,4.19-5.82,4.19s-5.99-1.99-5.99-5v-3.71c0-3.01,2.34-5,5.9-5s5.9,1.99,5.9,5v2.85h-8.98Zm0-2.96v.81h6.16v-.81c0-1.6-1.22-2.62-3.08-2.62-1.83,0-3.08,1.02-3.08,2.62Z" style="fill:#f59e0b;"/><path d="m619.54,126.79v-.26h2.91v.24c0,1.07,1.07,1.78,2.74,1.78s2.6-.63,2.6-1.6c0-2.67-8.08-.92-8.08-5.89,0-2.54,2.12-3.95,5.28-3.95,3.33,0,5.42,1.57,5.42,3.8v.23h-2.88v-.15c0-.97-.96-1.6-2.49-1.6s-2.37.58-2.37,1.49c0,2.62,8.08.79,8.08,5.81,0,2.59-2.18,4.14-5.57,4.14-3.45,0-5.65-1.68-5.65-4.03Z" style="fill:#f59e0b;"/><path d="m631.66,126.79v-.26h2.91v.24c0,1.07,1.07,1.78,2.74,1.78s2.6-.63,2.6-1.6c0-2.67-8.08-.92-8.08-5.89,0-2.54,2.12-3.95,5.28-3.95,3.33,0,5.42,1.57,5.42,3.8v.23h-2.88v-.15c0-.97-.96-1.6-2.49-1.6s-2.37.58-2.37,1.49c0,2.62,8.08.79,8.08,5.81,0,2.59-2.18,4.14-5.57,4.14-3.45,0-5.65-1.68-5.65-4.03Z" style="fill:#f59e0b;"/><path d="m644.37,128.88c0-1.07.79-1.78,1.95-1.78s1.95.71,1.95,1.78-.76,1.81-1.95,1.81c-1.16,0-1.95-.71-1.95-1.81Z" style="fill:#f59e0b;"/><path d="m661.69,121.5v9h-2.68v-1.91h-.23c-.59,1.36-2.12,2.22-4.18,2.22-2.88,0-4.75-1.52-4.75-3.85s1.86-3.93,4.72-3.93h4.29v-1.26c0-1.47-1.1-2.41-2.94-2.41-1.58,0-2.77.71-2.77,1.78v.29h-2.74v-.42c0-2.38,2.26-3.93,5.59-3.93,3.47,0,5.68,1.76,5.68,4.4Zm-2.83,4.95v-1.36h-3.95c-1.36,0-2.2.68-2.2,1.7,0,1.13,1.07,1.83,2.83,1.83,1.98,0,3.33-.89,3.33-2.17Z" style="fill:#f59e0b;"/><path d="m664.06,113.57c0-.94.71-1.57,1.78-1.57s1.78.63,1.78,1.57-.71,1.62-1.78,1.62-1.78-.65-1.78-1.62Zm.37,3.85h2.83v13.09h-2.83v-13.09Z" style="fill:#f59e0b;"/></g></svg>