<?xml version="1.0" encoding="UTF-8"?><svg xmlns="http://www.w3.org/2000/svg" width="500" height="250" viewBox="0 0 1000 500"><g id="b"><rect width="1000" height="500" style="fill:#fef2f2;"/></g><g id="d"><g id="e"><g id="f"><rect x="314.45" y="145.46" width="380.72" height="10.63" style="fill:#ef4444;"/><rect x="347.08" y="120.84" width="36.62" height="10.63" style="fill:#ef4444;"/><rect x="399.28" y="120.84" width="36.62" height="10.63" style="fill:#ef4444;"/><path d="m686.02,93.87h-361.47c-8.27,0-14.98,6.71-14.98,14.98v300.65c0,8.27,6.71,14.98,14.98,14.98h361.47c8.27,0,14.98-6.71,14.98-14.98V108.86c0-8.27-6.71-14.98-14.98-14.98Zm4.35,315.63c0,2.4-1.95,4.34-4.35,4.35h-361.47c-2.4,0-4.34-1.95-4.35-4.35V108.86c0-2.4,1.95-4.34,4.35-4.35h361.47c2.4,0,4.34,1.95,4.35,4.35v300.65Z" style="fill:#ef4444;"/></g></g></g><g id="g"><path d="m603.33,123.02c0,3.59-2.49,5.92-6.3,5.92h-4.35v5.68h-2.99v-17.54h7.34c3.81,0,6.3,2.35,6.3,5.94Zm-2.97,0c0-2.07-1.38-3.38-3.56-3.38h-4.12v6.75h4.12c2.17,0,3.56-1.31,3.56-3.38Z" style="fill:#ef4444;"/><path d="m612.94,121.21v2.67h-.62c-2.57,0-4.07,1.57-4.07,3.43v7.3h-2.83v-13.09h2.83v2.36h.17c.57-1.67,2.01-2.67,4.01-2.67h.51Z" style="fill:#ef4444;"/><path d="m616.52,129.06v.94c0,1.6,1.24,2.64,3.16,2.64,1.78,0,2.99-.76,2.99-1.94v-.06h2.82v.08c0,2.51-2.34,4.19-5.82,4.19s-5.99-1.99-5.99-5v-3.71c0-3.01,2.34-5,5.9-5s5.9,1.99,5.9,5v2.85h-8.98Zm0-2.96v.81h6.16v-.81c0-1.6-1.22-2.62-3.08-2.62-1.83,0-3.08,1.02-3.08,2.62Z" style="fill:#ef4444;"/><path d="m626.98,130.9v-.26h2.91v.24c0,1.07,1.07,1.78,2.74,1.78s2.6-.63,2.6-1.6c0-2.67-8.08-.92-8.08-5.89,0-2.54,2.12-3.95,5.28-3.95,3.33,0,5.42,1.57,5.42,3.8v.23h-2.88v-.15c0-.97-.96-1.6-2.49-1.6s-2.37.58-2.37,1.49c0,2.62,8.08.79,8.08,5.81,0,2.59-2.18,4.14-5.57,4.14-3.45,0-5.65-1.68-5.65-4.03Z" style="fill:#ef4444;"/><path d="m639.1,130.9v-.26h2.91v.24c0,1.07,1.07,1.78,2.74,1.78s2.6-.63,2.6-1.6c0-2.67-8.08-.92-8.08-5.89,0-2.54,2.12-3.95,5.28-3.95,3.33,0,5.42,1.57,5.42,3.8v.23h-2.88v-.15c0-.97-.96-1.6-2.49-1.6s-2.37.58-2.37,1.49c0,2.62,8.08.79,8.08,5.81,0,2.59-2.18,4.14-5.57,4.14-3.45,0-5.65-1.68-5.65-4.03Z" style="fill:#ef4444;"/><path d="m651.81,132.99c0-1.07.79-1.78,1.95-1.78s1.95.71,1.95,1.78-.76,1.81-1.95,1.81c-1.16,0-1.95-.71-1.95-1.81Z" style="fill:#ef4444;"/><path d="m669.13,125.61v9h-2.68v-1.91h-.23c-.59,1.36-2.12,2.22-4.18,2.22-2.88,0-4.75-1.52-4.75-3.85s1.86-3.93,4.72-3.93h4.29v-1.26c0-1.47-1.1-2.41-2.94-2.41-1.58,0-2.77.71-2.77,1.78v.29h-2.74v-.42c0-2.38,2.26-3.93,5.59-3.93,3.47,0,5.68,1.76,5.68,4.4Zm-2.83,4.95v-1.36h-3.95c-1.36,0-2.2.68-2.2,1.7,0,1.13,1.07,1.83,2.83,1.83,1.98,0,3.33-.89,3.33-2.17Z" style="fill:#ef4444;"/><path d="m671.5,117.68c0-.94.71-1.57,1.78-1.57s1.78.63,1.78,1.57-.71,1.62-1.78,1.62-1.78-.65-1.78-1.62Zm.37,3.85h2.83v13.09h-2.83v-13.09Z" style="fill:#ef4444;"/></g><g id="h"><g id="i"><g id="j"><path d="m623.3,191.12h-105.27c-4.75,0-8.6,3.85-8.6,8.6v76.6c0,4.75,3.85,8.6,8.6,8.6h105.28c4.75,0,8.6-3.85,8.6-8.6v-76.6c0-4.75-3.86-8.6-8.61-8.6Zm-.41,84.8h-104.46v-75.79h104.47v75.79Z" style="fill:#ef4444;"/><path d="m594.64,213.55c-3.06-.16-6,1.2-7.87,3.63l-25.77,33.63c-.05.07-.12.11-.2.11-.09,0-.17-.03-.23-.09l-9.13-9.25c-3.59-3.67-9.48-3.73-13.15-.13-.28.27-.54.56-.78.86l-26.59,33.34,7.05,5.62,26.59-33.34c.05-.07.13-.11.21-.11.08,0,.16.03.22.09l9.13,9.26c3.6,3.66,9.49,3.7,13.15.1.31-.3.6-.63.86-.97l25.77-33.63c.05-.08.15-.13.25-.11.1,0,.18.05.23.14l29.19,47.6,7.68-4.71-29.18-47.6c-1.6-2.6-4.37-4.26-7.42-4.42Z" style="fill:#ef4444;"/><path d="m623.3,295.17h-105.27c-4.75,0-8.6,3.85-8.6,8.6v76.6c0,4.75,3.85,8.6,8.6,8.6h105.28c4.75,0,8.6-3.85,8.6-8.6v-76.6c0-4.75-3.86-8.6-8.61-8.6Zm-.41,84.8h-104.46v-75.79h104.47v75.79Z" style="fill:#ef4444;"/><path d="m594.64,317.6c-3.06-.16-6,1.2-7.87,3.63l-25.77,33.63c-.04.07-.12.12-.2.11-.09,0-.17-.03-.23-.09l-9.13-9.25c-3.59-3.67-9.48-3.73-13.15-.13-.28.27-.54.56-.78.86l-26.59,33.34,7.05,5.62,26.59-33.34c.05-.07.13-.11.21-.11.08-.01.17.02.22.09l9.13,9.26c3.6,3.66,9.49,3.7,13.15.1.31-.3.6-.63.86-.97l25.77-33.63c.05-.09.15-.13.25-.11.1,0,.18.05.23.14l29.19,47.6,7.68-4.71-29.18-47.6c-1.6-2.6-4.37-4.26-7.42-4.42Z" style="fill:#ef4444;"/><path d="m447.78,305.42c-3.01-.04-5.82,1.52-7.37,4.1l-44.24,71.91,7.68,4.72,43.85-71.33,35.11,59.7,7.77-4.56-35.46-60.28c-1.51-2.62-4.3-4.24-7.32-4.26Z" style="fill:#ef4444;"/><path d="m410.03,321.6c-2.81.08-5.4,1.52-6.95,3.87l-35.9,54.56,7.53,4.96,35.58-54.07,11.13,14.99,7.23-5.37-11.47-15.46c-1.67-2.26-4.34-3.56-7.15-3.47Z" style="fill:#ef4444;"/><path d="m482.38,191h-108.55c-4.75,0-8.6,3.85-8.6,8.6v181.07c0,4.75,3.85,8.6,8.6,8.6h108.56c4.75,0,8.6-3.85,8.6-8.6v-181.07c0-4.75-3.86-8.6-8.61-8.6Zm-.4,189.26h-107.75v-180.25h107.75v180.25Z" style="fill:#ef4444;"/><path d="m450.85,237.53c-1.06-.06-2.13-.03-3.19.09-2.6-8.02-11.21-12.42-19.23-9.83-2.55.83-4.84,2.31-6.63,4.3-9.55-8.84-24.45-8.26-33.29,1.29-8.84,9.55-8.26,24.45,1.29,33.29,4.35,4.03,10.06,6.27,15.99,6.27h43.91c9.78,0,17.71-7.93,17.72-17.71,0-.27,0-.54-.02-.81-.49-8.99-7.58-16.21-16.55-16.88Zm5.17,23.7c-1.64,1.73-3.93,2.7-6.32,2.69h-43.91c-8.03,0-14.54-6.52-14.54-14.55,0-.34.01-.68.04-1.02.52-7.28,6.35-13.04,13.63-13.48h.82c4.67,0,9.05,2.23,11.79,6.01,1.89,2.54,5.48,3.08,8.02,1.19.78-.58,1.41-1.35,1.81-2.24,1.3-3.19,4.94-4.73,8.14-3.43,2.26.92,3.78,3.08,3.88,5.52.1,1.78,1.04,3.4,2.52,4.38,1.49,1,3.35,1.24,5.05.66,1.07-.37,2.21-.52,3.34-.45h0c4.41.32,7.89,3.87,8.14,8.28.11,2.39-.77,4.71-2.43,6.42h.02Z" style="fill:#ef4444;"/></g></g></g></svg>