<?xml version="1.0" encoding="UTF-8"?><svg xmlns="http://www.w3.org/2000/svg" width="500" height="250" viewBox="0 0 1000 500"><g id="b"><rect width="1000" height="500" style="fill:#ffeff7;"/></g><g id="d"><g id="e"><g id="f"><rect x="314.45" y="145.46" width="380.72" height="10.63" style="fill:#bf3989;"/><rect x="347.08" y="120.84" width="36.62" height="10.63" style="fill:#bf3989;"/><rect x="399.28" y="120.84" width="36.62" height="10.63" style="fill:#bf3989;"/><path d="m686.02,93.87h-361.47c-8.27,0-14.98,6.71-14.98,14.98v300.65c0,8.27,6.71,14.98,14.98,14.98h361.47c8.27,0,14.98-6.71,14.98-14.98V108.86c0-8.27-6.71-14.98-14.98-14.98Zm4.35,315.63c0,2.4-1.95,4.34-4.35,4.35h-361.47c-2.4,0-4.34-1.95-4.35-4.35V108.86c0-2.4,1.95-4.34,4.35-4.35h361.47c2.4,0,4.34,1.95,4.35,4.35v300.65Z" style="fill:#bf3989;"/></g></g></g><g id="g"><path d="m603.33,123.02c0,3.59-2.49,5.92-6.3,5.92h-4.35v5.68h-2.99v-17.54h7.34c3.81,0,6.3,2.35,6.3,5.94Zm-2.97,0c0-2.07-1.38-3.38-3.56-3.38h-4.12v6.75h4.12c2.17,0,3.56-1.31,3.56-3.38Z" style="fill:#bf3989;"/><path d="m612.94,121.21v2.67h-.62c-2.57,0-4.07,1.57-4.07,3.43v7.3h-2.83v-13.09h2.83v2.36h.17c.57-1.67,2.01-2.67,4.01-2.67h.51Z" style="fill:#bf3989;"/><path d="m616.52,129.06v.94c0,1.6,1.24,2.64,3.16,2.64,1.78,0,2.99-.76,2.99-1.94v-.06h2.82v.08c0,2.51-2.34,4.19-5.82,4.19s-5.99-1.99-5.99-5v-3.71c0-3.01,2.34-5,5.9-5s5.9,1.99,5.9,5v2.85h-8.98Zm0-2.96v.81h6.16v-.81c0-1.6-1.22-2.62-3.08-2.62-1.83,0-3.08,1.02-3.08,2.62Z" style="fill:#bf3989;"/><path d="m626.98,130.9v-.26h2.91v.24c0,1.07,1.07,1.78,2.74,1.78s2.6-.63,2.6-1.6c0-2.67-8.08-.92-8.08-5.89,0-2.54,2.12-3.95,5.28-3.95,3.33,0,5.42,1.57,5.42,3.8v.23h-2.88v-.15c0-.97-.96-1.6-2.49-1.6s-2.37.58-2.37,1.49c0,2.62,8.08.79,8.08,5.81,0,2.59-2.18,4.14-5.57,4.14-3.45,0-5.65-1.68-5.65-4.03Z" style="fill:#bf3989;"/><path d="m639.1,130.9v-.26h2.91v.24c0,1.07,1.07,1.78,2.74,1.78s2.6-.63,2.6-1.6c0-2.67-8.08-.92-8.08-5.89,0-2.54,2.12-3.95,5.28-3.95,3.33,0,5.42,1.57,5.42,3.8v.23h-2.88v-.15c0-.97-.96-1.6-2.49-1.6s-2.37.58-2.37,1.49c0,2.62,8.08.79,8.08,5.81,0,2.59-2.18,4.14-5.57,4.14-3.45,0-5.65-1.68-5.65-4.03Z" style="fill:#bf3989;"/><path d="m651.81,132.99c0-1.07.79-1.78,1.95-1.78s1.95.71,1.95,1.78-.76,1.81-1.95,1.81c-1.16,0-1.95-.71-1.95-1.81Z" style="fill:#bf3989;"/><path d="m669.13,125.61v9h-2.68v-1.91h-.23c-.59,1.36-2.12,2.22-4.18,2.22-2.88,0-4.75-1.52-4.75-3.85s1.86-3.93,4.72-3.93h4.29v-1.26c0-1.47-1.1-2.41-2.94-2.41-1.58,0-2.77.71-2.77,1.78v.29h-2.74v-.42c0-2.38,2.26-3.93,5.59-3.93,3.47,0,5.68,1.76,5.68,4.4Zm-2.83,4.95v-1.36h-3.95c-1.36,0-2.2.68-2.2,1.7,0,1.13,1.07,1.83,2.83,1.83,1.98,0,3.33-.89,3.33-2.17Z" style="fill:#bf3989;"/><path d="m671.5,117.68c0-.94.71-1.57,1.78-1.57s1.78.63,1.78,1.57-.71,1.62-1.78,1.62-1.78-.65-1.78-1.62Zm.37,3.85h2.83v13.09h-2.83v-13.09Z" style="fill:#bf3989;"/></g><g id="h"><g id="i"><g id="j"><rect x="520.78" y="342.94" width="5.56" height="25.77" style="fill:#bf3989;"/><rect x="465.85" y="342.94" width="5.56" height="25.77" style="fill:#bf3989;"/><path d="m551.8,390h-111.4v-2.78c0-18.9,16.59-21.33,31.04-21.33h49.33c14.45,0,31.04,2.42,31.04,21.33v2.78Zm-105.67-5.56h99.93c-1.15-9.29-8.56-12.98-25.29-12.98h-49.33c-16.75,0-24.16,3.69-25.31,12.98Z" style="fill:#bf3989;"/><path d="m591.07,345.73v-5.56c.86,0,1.56-.7,1.56-1.56v-141.59c0-.86-.7-1.56-1.56-1.56h-189.96c-.86,0-1.56.7-1.56,1.56v141.59c0,.86.7,1.56,1.56,1.56h122.45v5.56h-122.45c-3.94,0-7.12-3.19-7.13-7.13v-141.59c0-3.94,3.19-7.12,7.13-7.13h189.96c3.94,0,7.12,3.19,7.13,7.13v141.59c0,3.94-3.19,7.12-7.13,7.13Z" style="fill:#bf3989;"/><path d="m591.07,345.73h-189.96c-3.94,0-7.12-3.19-7.13-7.13v-16.69h204.21v16.69c0,3.94-3.19,7.12-7.13,7.13Zm-191.52-18.26v11.13c0,.86.7,1.56,1.56,1.56h189.96c.86,0,1.56-.7,1.56-1.56v-11.13h-193.09Z" style="fill:#bf3989;"/><rect x="396.29" y="203.73" width="199.13" height="5.56" style="fill:#bf3989;"/><path d="m495.83,294.3c-20.02,0-38.75-8.83-52.72-24.86-1.72-2.05-1.72-5.03,0-7.08,13.98-16.03,32.7-24.86,52.73-24.86s38.74,8.83,52.71,24.85h0c1.74,2.04,1.74,5.04,0,7.08-13.98,16.04-32.7,24.87-52.72,24.87Zm-48.44-28.41c12.89,14.73,30.09,22.85,48.44,22.85s35.54-8.09,48.43-22.85c-12.87-14.73-30.07-22.84-48.43-22.84s-35.55,8.11-48.44,22.84Zm48.44,17.5c-10.14,0-18.35-8.22-18.35-18.36,0-10.14,8.22-18.35,18.36-18.35,10.14,0,18.35,8.22,18.35,18.36-.01,10.14-8.23,18.35-18.36,18.36h0Zm0-31.14c-7.07,0-12.79,5.73-12.79,12.8,0,7.07,5.73,12.79,12.8,12.79,7.07,0,12.79-5.73,12.79-12.8h0c-.01-7.06-5.74-12.78-12.8-12.79h0Z" style="fill:#bf3989;"/><path d="m464.4,248.6h-5.56v-14.89h-20.4v-5.56h20.74c2.89,0,5.23,2.35,5.24,5.24l-.02,15.22Z" style="fill:#bf3989;"/><path d="m428.45,244.09c-7.17,0-12.99-5.82-12.99-12.99s5.82-12.99,12.99-12.99,12.99,5.82,12.99,12.99c0,7.17-5.82,12.98-12.99,12.99Zm0-20.43c-4.1,0-7.43,3.32-7.43,7.43s3.32,7.43,7.43,7.43,7.43-3.32,7.43-7.43h0c0-4.1-3.33-7.42-7.43-7.43Z" style="fill:#bf3989;"/><path d="m447.56,316.45c-7.17-.01-12.98-5.84-12.97-13.01s5.84-12.98,13.01-12.97c7.17.01,12.97,5.82,12.97,12.99,0,7.18-5.83,12.99-13.01,12.99Zm0-20.42c-4.1.01-7.42,3.34-7.41,7.45.01,4.1,3.34,7.42,7.45,7.41,4.09-.01,7.41-3.33,7.41-7.43,0-4.11-3.34-7.43-7.45-7.43h0Z" style="fill:#bf3989;"/><rect x="444.79" y="271.47" width="5.56" height="22.17" style="fill:#bf3989;"/><rect x="428.45" y="263.11" width="14.9" height="5.56" style="fill:#bf3989;"/><path d="m418.16,278.72c-7.17,0-12.99-5.82-12.99-12.99s5.82-12.99,12.99-12.99,12.99,5.82,12.99,12.99h0c0,7.17-5.82,12.98-12.99,12.99Zm0-20.42c-4.1,0-7.43,3.32-7.43,7.43s3.32,7.43,7.43,7.43,7.43-3.32,7.43-7.43c0-4.1-3.33-7.42-7.43-7.43Z" style="fill:#bf3989;"/><path d="m553.79,303.71h-20.74c-2.88-.02-5.2-2.35-5.2-5.23v-16.23h5.56v15.89h20.4l-.02,5.56Z" style="fill:#bf3989;"/><rect x="541.29" y="238.15" width="5.56" height="22.17" style="fill:#bf3989;"/><rect x="548.09" y="262.78" width="14.9" height="5.56" style="fill:#bf3989;"/><path d="m563.2,313.68c-7.17,0-12.99-5.82-12.99-12.99,0-7.17,5.82-12.99,12.99-12.99s12.99,5.82,12.99,12.99h0c0,7.17-5.82,12.98-12.99,12.99Zm0-20.42c-4.1,0-7.43,3.32-7.43,7.43,0,4.1,3.32,7.43,7.43,7.43s7.43-3.32,7.43-7.43h0c0-4.1-3.33-7.42-7.43-7.43Z" style="fill:#bf3989;"/><path d="m544.09,241.32c-7.18,0-13-5.81-13-12.99s5.81-13,12.99-13,13,5.81,13,12.99h0c0,7.18-5.82,12.99-12.99,13Zm0-20.42c-4.1,0-7.43,3.32-7.44,7.43s3.32,7.43,7.43,7.44c4.1,0,7.43-3.32,7.44-7.43h0c0-4.11-3.33-7.43-7.43-7.44Z" style="fill:#bf3989;"/><path d="m573.28,278.72c-7.17,0-12.99-5.82-12.99-12.99,0-7.17,5.82-12.99,12.99-12.99s12.99,5.82,12.99,12.99h0c0,7.17-5.82,12.98-12.99,12.99Zm0-20.42c-4.1,0-7.43,3.32-7.43,7.43,0,4.1,3.32,7.43,7.43,7.43s7.43-3.32,7.43-7.43h0c0-4.1-3.33-7.42-7.43-7.43Z" style="fill:#bf3989;"/></g></g></g></svg>