<?xml version="1.0" encoding="UTF-8"?><svg xmlns="http://www.w3.org/2000/svg" width="1009" height="1006" viewBox="0 0 1009 1006"><g id="b"><rect width="1009" height="1005" style="fill:#7031f5; stroke-width:0px;"/></g><g id="d"><path d="M266.27,674.1c0,30.79-21.35,50.79-54.1,50.79h-37.36v48.77h-25.71v-150.58h63.07c32.75,0,54.1,20.23,54.1,51.02ZM240.79,674.1c0-17.75-11.89-28.99-30.57-28.99h-35.42v57.98h35.42c18.68,0,30.57-11.24,30.57-28.99Z" style="fill:#fff; stroke-width:0px;"/><path d="M348.74,658.59v22.92h-5.34c-22.08,0-34.93,13.49-34.93,29.44v62.7h-24.26v-112.37h24.26v20.23h1.46c4.85-14.38,17.22-22.92,34.45-22.92h4.37Z" style="fill:#fff; stroke-width:0px;"/><path d="M379.54,726.02v8.09c0,13.71,10.67,22.7,27.17,22.7,15.28,0,25.71-6.52,25.71-16.63v-.45h24.26v.67c0,21.58-20.13,35.96-49.97,35.96s-51.43-17.08-51.43-42.93v-31.91c0-25.85,20.13-42.93,50.7-42.93s50.7,17.08,50.7,42.93v24.5h-77.14ZM379.54,700.62v6.97h52.88v-6.97c0-13.71-10.43-22.47-26.44-22.47s-26.44,8.77-26.44,22.47Z" style="fill:#fff; stroke-width:0px;"/><path d="M469.3,741.75v-2.25h24.99v2.02c0,9.21,9.22,15.28,23.53,15.28s22.32-5.39,22.32-13.71c0-22.92-69.38-7.87-69.38-50.57,0-21.8,18.19-33.94,45.36-33.94,28.62,0,46.58,13.48,46.58,32.59v2.02h-24.74v-1.35c0-8.32-8.25-13.71-21.35-13.71s-20.38,4.94-20.38,12.81c0,22.47,69.38,6.74,69.38,49.89,0,22.25-18.68,35.51-47.79,35.51s-48.52-14.38-48.52-34.61Z" style="fill:#fff; stroke-width:0px;"/><path d="M573.36,741.75v-2.25h24.99v2.02c0,9.21,9.22,15.28,23.53,15.28s22.32-5.39,22.32-13.71c0-22.92-69.38-7.87-69.38-50.57,0-21.8,18.19-33.94,45.36-33.94,28.62,0,46.58,13.48,46.58,32.59v2.02h-24.74v-1.35c0-8.32-8.25-13.71-21.35-13.71s-20.38,4.94-20.38,12.81c0,22.47,69.38,6.74,69.38,49.89,0,22.25-18.68,35.51-47.79,35.51s-48.52-14.38-48.52-34.61Z" style="fill:#fff; stroke-width:0px;"/><path d="M682.52,759.73c0-9.21,6.79-15.28,16.74-15.28s16.74,6.07,16.74,15.28-6.55,15.51-16.74,15.51-16.74-6.07-16.74-15.51Z" style="fill:#fff; stroke-width:0px;"/><path d="M831.22,696.35v77.31h-23.05v-16.41h-1.94c-5.09,11.69-18.19,19.1-35.9,19.1-24.74,0-40.75-13.04-40.75-33.04s16.01-33.71,40.51-33.71h36.87v-10.79c0-12.59-9.46-20.68-25.23-20.68-13.58,0-23.77,6.07-23.77,15.28v2.47h-23.53v-3.6c0-20.45,19.41-33.71,48.03-33.71s48.76,15.06,48.76,37.76ZM806.96,738.83v-11.69h-33.96c-11.64,0-18.92,5.84-18.92,14.61,0,9.66,9.22,15.73,24.26,15.73,16.98,0,28.62-7.64,28.62-18.65Z" style="fill:#fff; stroke-width:0px;"/><path d="M851.59,628.25c0-8.09,6.07-13.49,15.28-13.49s15.28,5.39,15.28,13.49-6.07,13.93-15.28,13.93-15.28-5.62-15.28-13.93ZM854.74,661.29h24.26v112.37h-24.26v-112.37Z" style="fill:#fff; stroke-width:0px;"/></g><g id="e"><path d="M598.82,193.92h-189.16c-63.2,0-114.61,51.41-114.61,114.61v243.44l102.21-76.39c3.58-2.68,7.93-4.12,12.4-4.12h189.16c63.2,0,114.61-51.41,114.61-114.61v-48.31c0-63.2-51.41-114.61-114.61-114.61ZM637.48,356.85c0,21.32-17.34,38.66-38.66,38.66h-189.16c-21.32,0-38.66-17.34-38.66-38.66v-48.31c0-21.32,17.34-38.66,38.66-38.66h189.16c21.32,0,38.66,17.34,38.66,38.66v48.31Z" style="fill:#fcfcfc; stroke-width:0px;"/><path d="M598.82,228.44h-189.16c-44.16,0-80.09,35.93-80.09,80.09v48.31c0,44.16,35.93,80.09,80.09,80.09h189.16c44.16,0,80.09-35.93,80.09-80.09v-48.31c0-44.16-35.93-80.09-80.09-80.09ZM637.48,356.85c0,21.32-17.34,38.66-38.66,38.66h-189.16c-21.32,0-38.66-17.34-38.66-38.66v-48.31c0-21.32,17.34-38.66,38.66-38.66h189.16c21.32,0,38.66,17.34,38.66,38.66v48.31Z" style="fill:#fcfcfc; stroke-width:0px;"/><circle cx="433.69" cy="332.69" r="25.55" style="fill:#fcfcfc; stroke-width:0px;"/><circle cx="574.78" cy="332.69" r="25.55" style="fill:#fcfcfc; stroke-width:0px;"/></g></svg>